# Blender 5.1.1
# www.blender.org
mtllib hall_shell.mtl
o single_floor_slab
v -30.000000 -17.500000 -0.300000
v 30.000000 -17.500000 -0.300000
v 30.000000 17.500000 -0.300000
v -30.000000 17.500000 -0.300000
v -30.000000 -17.500000 0.000000
v 30.000000 -17.500000 0.000000
v 30.000000 17.500000 0.000000
v -30.000000 17.500000 0.000000
vn -0.0000 -0.0000 1.0000
vn -0.0000 -0.0000 -1.0000
vn -0.0000 1.0000 -0.0000
vn -1.0000 -0.0000 -0.0000
vn -0.0000 -1.0000 -0.0000
vn 1.0000 -0.0000 -0.0000
s 0
usemtl mat_floor
f 2//1 4//1 1//1
f 8//2 6//2 5//2
f 5//3 2//3 1//3
f 6//4 3//4 2//4
f 7//5 4//5 3//5
f 8//6 1//6 4//6
f 2//1 3//1 4//1
f 8//2 7//2 6//2
f 5//3 6//3 2//3
f 6//4 7//4 3//4
f 7//5 8//5 4//5
f 8//6 5//6 1//6
o single_wall_north
v -30.299999 17.500000 0.000000
v 30.299999 17.500000 0.000000
v 30.299999 17.799999 0.000000
v -30.299999 17.799999 0.000000
v -30.299999 17.500000 12.000000
v 30.299999 17.500000 12.000000
v 30.299999 17.799999 12.000000
v -30.299999 17.799999 12.000000
vn -0.0000 -0.0000 1.0000
vn -0.0000 -0.0000 -1.0000
vn -0.0000 1.0000 -0.0000
vn -1.0000 -0.0000 -0.0000
vn -0.0000 -1.0000 -0.0000
vn 1.0000 -0.0000 -0.0000
s 0
usemtl mat_wallpanel
f 10//7 12//7 9//7
f 16//8 14//8 13//8
f 13//9 10//9 9//9
f 14//10 11//10 10//10
f 15//11 12//11 11//11
f 16//12 9//12 12//12
f 10//7 11//7 12//7
f 16//8 15//8 14//8
f 13//9 14//9 10//9
f 14//10 15//10 11//10
f 15//11 16//11 12//11
f 16//12 13//12 9//12
o single_wall_south
v -30.299999 -17.799999 0.000000
v 30.299999 -17.799999 0.000000
v 30.299999 -17.500000 0.000000
v -30.299999 -17.500000 0.000000
v -30.299999 -17.799999 12.000000
v 30.299999 -17.799999 12.000000
v 30.299999 -17.500000 12.000000
v -30.299999 -17.500000 12.000000
vn -0.0000 -0.0000 1.0000
vn -0.0000 -0.0000 -1.0000
vn -0.0000 1.0000 -0.0000
vn -1.0000 -0.0000 -0.0000
vn -0.0000 -1.0000 -0.0000
vn 1.0000 -0.0000 -0.0000
s 0
usemtl mat_wallpanel
f 18//13 20//13 17//13
f 24//14 22//14 21//14
f 21//15 18//15 17//15
f 22//16 19//16 18//16
f 23//17 20//17 19//17
f 24//18 17//18 20//18
f 18//13 19//13 20//13
f 24//14 23//14 22//14
f 21//15 22//15 18//15
f 22//16 23//16 19//16
f 23//17 24//17 20//17
f 24//18 21//18 17//18
o single_wall_east
v 29.999994 -17.500000 0.000000
v 30.299994 -17.500000 0.000000
v 30.299994 17.500000 0.000000
v 29.999994 17.500000 0.000000
v 29.999994 -17.500000 12.000000
v 30.299994 -17.500000 12.000000
v 30.299994 17.500000 12.000000
v 29.999994 17.500000 12.000000
vn -0.0000 -0.0000 1.0000
vn -0.0000 -0.0000 -1.0000
vn -0.0000 1.0000 -0.0000
vn -1.0000 -0.0000 -0.0000
vn -0.0000 -1.0000 -0.0000
vn 1.0000 -0.0000 -0.0000
s 0
usemtl mat_wallpanel
f 26//19 28//19 25//19
f 32//20 30//20 29//20
f 29//21 26//21 25//21
f 30//22 27//22 26//22
f 31//23 28//23 27//23
f 32//24 25//24 28//24
f 26//19 27//19 28//19
f 32//20 31//20 30//20
f 29//21 30//21 26//21
f 30//22 31//22 27//22
f 31//23 32//23 28//23
f 32//24 29//24 25//24
o single_wall_west
v -30.300001 -17.500000 0.000000
v -30.000002 -17.500000 0.000000
v -30.000002 17.500000 0.000000
v -30.300001 17.500000 0.000000
v -30.300001 -17.500000 12.000000
v -30.000002 -17.500000 12.000000
v -30.000002 17.500000 12.000000
v -30.300001 17.500000 12.000000
vn -0.0000 -0.0000 1.0000
vn -0.0000 -0.0000 -1.0000
vn -0.0000 1.0000 -0.0000
vn -1.0000 -0.0000 -0.0000
vn -0.0000 -1.0000 -0.0000
vn 1.0000 -0.0000 -0.0000
s 0
usemtl mat_wallpanel
f 34//25 36//25 33//25
f 40//26 38//26 37//26
f 37//27 34//27 33//27
f 38//28 35//28 34//28
f 39//29 36//29 35//29
f 40//30 33//30 36//30
f 34//25 35//25 36//25
f 40//26 39//26 38//26
f 37//27 38//27 34//27
f 38//28 39//28 35//28
f 39//29 40//29 36//29
f 40//30 37//30 33//30
