# Blender 5.1.1
# www.blender.org
mtllib control_room.mtl
o cr_floor.006
v 18.500000 -16.799999 0.000000
v 29.000000 -16.799999 0.000000
v 29.000000 -10.500000 0.000000
v 18.500000 -10.500000 0.000000
v 18.500000 -16.799999 0.180000
v 29.000000 -16.799999 0.180000
v 29.000000 -10.500000 0.180000
v 18.500000 -10.500000 0.180000
vn -0.0000 -0.0000 1.0000
vn -0.0000 -0.0000 -1.0000
vn -0.0000 1.0000 -0.0000
vn -1.0000 -0.0000 -0.0000
vn -0.0000 -1.0000 -0.0000
vn 1.0000 -0.0000 -0.0000
s 0
usemtl mat_structure
f 2//1 4//1 1//1
f 8//2 6//2 5//2
f 5//3 2//3 1//3
f 6//4 3//4 2//4
f 7//5 4//5 3//5
f 8//6 1//6 4//6
f 2//1 3//1 4//1
f 8//2 7//2 6//2
f 5//3 6//3 2//3
f 6//4 7//4 3//4
f 7//5 8//5 4//5
f 8//6 5//6 1//6
o cr_roof.006
v 18.350000 -16.949999 3.395000
v 29.150000 -16.949999 3.395000
v 29.150000 -10.349999 3.395000
v 18.350000 -10.349999 3.395000
v 18.350000 -16.949999 3.645000
v 29.150000 -16.949999 3.645000
v 29.150000 -10.349999 3.645000
v 18.350000 -10.349999 3.645000
vn -0.0000 -0.0000 1.0000
vn -0.0000 -0.0000 -1.0000
vn -0.0000 1.0000 -0.0000
vn -1.0000 -0.0000 -0.0000
vn -0.0000 -1.0000 -0.0000
vn 1.0000 -0.0000 -0.0000
s 0
usemtl mat_wallpanel
f 10//7 12//7 9//7
f 16//8 14//8 13//8
f 13//9 10//9 9//9
f 14//10 11//10 10//10
f 15//11 12//11 11//11
f 16//12 9//12 12//12
f 10//7 11//7 12//7
f 16//8 15//8 14//8
f 13//9 14//9 10//9
f 14//10 15//10 11//10
f 15//11 16//11 12//11
f 16//12 13//12 9//12
o cr_wall_east.006
v 28.900000 -16.799999 0.000000
v 29.100000 -16.799999 0.000000
v 29.100000 -10.500000 0.000000
v 28.900000 -10.500000 0.000000
v 28.900000 -16.799999 3.400000
v 29.100000 -16.799999 3.400000
v 29.100000 -10.500000 3.400000
v 28.900000 -10.500000 3.400000
vn -0.0000 -0.0000 1.0000
vn -0.0000 -0.0000 -1.0000
vn -0.0000 1.0000 -0.0000
vn -1.0000 -0.0000 -0.0000
vn -0.0000 -1.0000 -0.0000
vn 1.0000 -0.0000 -0.0000
s 0
usemtl mat_wallpanel
f 18//13 20//13 17//13
f 24//14 22//14 21//14
f 21//15 18//15 17//15
f 22//16 19//16 18//16
f 23//17 20//17 19//17
f 24//18 17//18 20//18
f 18//13 19//13 20//13
f 24//14 23//14 22//14
f 21//15 22//15 18//15
f 22//16 23//16 19//16
f 23//17 24//17 20//17
f 24//18 21//18 17//18
o cr_wall_west.006
v 18.400000 -16.799999 0.000000
v 18.600000 -16.799999 0.000000
v 18.600000 -10.500000 0.000000
v 18.400000 -10.500000 0.000000
v 18.400000 -16.799999 3.400000
v 18.600000 -16.799999 3.400000
v 18.600000 -10.500000 3.400000
v 18.400000 -10.500000 3.400000
vn -0.0000 -0.0000 1.0000
vn -0.0000 -0.0000 -1.0000
vn -0.0000 1.0000 -0.0000
vn -1.0000 -0.0000 -0.0000
vn -0.0000 -1.0000 -0.0000
vn 1.0000 -0.0000 -0.0000
s 0
usemtl mat_wallpanel
f 26//19 28//19 25//19
f 32//20 30//20 29//20
f 29//21 26//21 25//21
f 30//22 27//22 26//22
f 31//23 28//23 27//23
f 32//24 25//24 28//24
f 26//19 27//19 28//19
f 32//20 31//20 30//20
f 29//21 30//21 26//21
f 30//22 31//22 27//22
f 31//23 32//23 28//23
f 32//24 29//24 25//24
o cr_wall_south.006
v 18.500000 -16.900000 0.000000
v 29.000000 -16.900000 0.000000
v 29.000000 -16.699999 0.000000
v 18.500000 -16.699999 0.000000
v 18.500000 -16.900000 3.400000
v 29.000000 -16.900000 3.400000
v 29.000000 -16.699999 3.400000
v 18.500000 -16.699999 3.400000
vn -0.0000 -0.0000 1.0000
vn -0.0000 -0.0000 -1.0000
vn -0.0000 1.0000 -0.0000
vn -1.0000 -0.0000 -0.0000
vn -0.0000 -1.0000 -0.0000
vn 1.0000 -0.0000 -0.0000
s 0
usemtl mat_wallpanel
f 34//25 36//25 33//25
f 40//26 38//26 37//26
f 37//27 34//27 33//27
f 38//28 35//28 34//28
f 39//29 36//29 35//29
f 40//30 33//30 36//30
f 34//25 35//25 36//25
f 40//26 39//26 38//26
f 37//27 38//27 34//27
f 38//28 39//28 35//28
f 39//29 40//29 36//29
f 40//30 37//30 33//30
o cr_sill.006
v 20.300001 -10.600000 0.000000
v 29.000002 -10.600000 0.000000
v 29.000002 -10.400000 0.000000
v 20.300001 -10.400000 0.000000
v 20.300001 -10.600000 1.000000
v 29.000002 -10.600000 1.000000
v 29.000002 -10.400000 1.000000
v 20.300001 -10.400000 1.000000
vn -0.0000 -0.0000 1.0000
vn -0.0000 -0.0000 -1.0000
vn -0.0000 1.0000 -0.0000
vn -1.0000 -0.0000 -0.0000
vn -0.0000 -1.0000 -0.0000
vn 1.0000 -0.0000 -0.0000
s 0
usemtl mat_wallpanel
f 42//31 44//31 41//31
f 48//32 46//32 45//32
f 45//33 42//33 41//33
f 46//34 43//34 42//34
f 47//35 44//35 43//35
f 48//36 41//36 44//36
f 42//31 43//31 44//31
f 48//32 47//32 46//32
f 45//33 46//33 42//33
f 46//34 47//34 43//34
f 47//35 48//35 44//35
f 48//36 45//36 41//36
o cr_window.006
v 20.300001 -10.560000 1.000000
v 29.000002 -10.560000 1.000000
v 29.000002 -10.440000 1.000000
v 20.300001 -10.440000 1.000000
v 20.300001 -10.560000 3.000000
v 29.000002 -10.560000 3.000000
v 29.000002 -10.440000 3.000000
v 20.300001 -10.440000 3.000000
vn -0.0000 -0.0000 1.0000
vn -0.0000 -0.0000 -1.0000
vn -0.0000 1.0000 -0.0000
vn -1.0000 -0.0000 -0.0000
vn -0.0000 -1.0000 -0.0000
vn 1.0000 -0.0000 -0.0000
s 0
usemtl mat_glass
f 50//37 52//37 49//37
f 56//38 54//38 53//38
f 53//39 50//39 49//39
f 54//40 51//40 50//40
f 55//41 52//41 51//41
f 56//42 49//42 52//42
f 50//37 51//37 52//37
f 56//38 55//38 54//38
f 53//39 54//39 50//39
f 54//40 55//40 51//40
f 55//41 56//41 52//41
f 56//42 53//42 49//42
o cr_header.006
v 18.500000 -10.600000 2.900000
v 29.000000 -10.600000 2.900000
v 29.000000 -10.400000 2.900000
v 18.500000 -10.400000 2.900000
v 18.500000 -10.600000 3.400000
v 29.000000 -10.600000 3.400000
v 29.000000 -10.400000 3.400000
v 18.500000 -10.400000 3.400000
vn -0.0000 -0.0000 1.0000
vn -0.0000 -0.0000 -1.0000
vn -0.0000 1.0000 -0.0000
vn -1.0000 -0.0000 -0.0000
vn -0.0000 -1.0000 -0.0000
vn 1.0000 -0.0000 -0.0000
s 0
usemtl mat_wallpanel
f 58//43 60//43 57//43
f 64//44 62//44 61//44
f 61//45 58//45 57//45
f 62//46 59//46 58//46
f 63//47 60//47 59//47
f 64//48 57//48 60//48
f 58//43 59//43 60//43
f 64//44 63//44 62//44
f 61//45 62//45 58//45
f 62//46 63//46 59//46
f 63//47 64//47 60//47
f 64//48 61//48 57//48
o cr_door_jamb.006
v 19.300001 -10.600000 0.000000
v 19.500002 -10.600000 0.000000
v 19.500002 -10.400000 0.000000
v 19.300001 -10.400000 0.000000
v 19.300001 -10.600000 2.900000
v 19.500002 -10.600000 2.900000
v 19.500002 -10.400000 2.900000
v 19.300001 -10.400000 2.900000
vn -0.0000 -0.0000 1.0000
vn -0.0000 -0.0000 -1.0000
vn -0.0000 1.0000 -0.0000
vn -1.0000 -0.0000 -0.0000
vn -0.0000 -1.0000 -0.0000
vn 1.0000 -0.0000 -0.0000
s 0
usemtl mat_structure
f 66//49 68//49 65//49
f 72//50 70//50 69//50
f 69//51 66//51 65//51
f 70//52 67//52 66//52
f 71//53 68//53 67//53
f 72//54 65//54 68//54
f 66//49 67//49 68//49
f 72//50 71//50 70//50
f 69//51 70//51 66//51
f 70//52 71//52 67//52
f 71//53 72//53 68//53
f 72//54 69//54 65//54
o cr_mullion.018
v 21.690001 -10.610000 1.000000
v 21.809999 -10.610000 1.000000
v 21.809999 -10.390000 1.000000
v 21.690001 -10.390000 1.000000
v 21.690001 -10.610000 3.000000
v 21.809999 -10.610000 3.000000
v 21.809999 -10.390000 3.000000
v 21.690001 -10.390000 3.000000
vn -0.0000 -0.0000 1.0000
vn -0.0000 -0.0000 -1.0000
vn -0.0000 1.0000 -0.0000
vn -1.0000 -0.0000 -0.0000
vn -0.0000 -1.0000 -0.0000
vn 1.0000 -0.0000 -0.0000
s 0
usemtl mat_structure
f 74//55 76//55 73//55
f 80//56 78//56 77//56
f 77//57 74//57 73//57
f 78//58 75//58 74//58
f 79//59 76//59 75//59
f 80//60 73//60 76//60
f 74//55 75//55 76//55
f 80//56 79//56 78//56
f 77//57 78//57 74//57
f 78//58 79//58 75//58
f 79//59 80//59 76//59
f 80//60 77//60 73//60
o cr_mullion.019
v 24.590002 -10.610000 1.000000
v 24.710001 -10.610000 1.000000
v 24.710001 -10.390000 1.000000
v 24.590002 -10.390000 1.000000
v 24.590002 -10.610000 3.000000
v 24.710001 -10.610000 3.000000
v 24.710001 -10.390000 3.000000
v 24.590002 -10.390000 3.000000
vn -0.0000 -0.0000 1.0000
vn -0.0000 -0.0000 -1.0000
vn -0.0000 1.0000 -0.0000
vn -1.0000 -0.0000 -0.0000
vn -0.0000 -1.0000 -0.0000
vn 1.0000 -0.0000 -0.0000
s 0
usemtl mat_structure
f 82//61 84//61 81//61
f 88//62 86//62 85//62
f 85//63 82//63 81//63
f 86//64 83//64 82//64
f 87//65 84//65 83//65
f 88//66 81//66 84//66
f 82//61 83//61 84//61
f 88//62 87//62 86//62
f 85//63 86//63 82//63
f 86//64 87//64 83//64
f 87//65 88//65 84//65
f 88//66 85//66 81//66
o cr_mullion.020
v 27.490004 -10.610000 1.000000
v 27.610003 -10.610000 1.000000
v 27.610003 -10.390000 1.000000
v 27.490004 -10.390000 1.000000
v 27.490004 -10.610000 3.000000
v 27.610003 -10.610000 3.000000
v 27.610003 -10.390000 3.000000
v 27.490004 -10.390000 3.000000
vn -0.0000 -0.0000 1.0000
vn -0.0000 -0.0000 -1.0000
vn -0.0000 1.0000 -0.0000
vn -1.0000 -0.0000 -0.0000
vn -0.0000 -1.0000 -0.0000
vn 1.0000 -0.0000 -0.0000
s 0
usemtl mat_structure
f 90//67 92//67 89//67
f 96//68 94//68 93//68
f 93//69 90//69 89//69
f 94//70 91//70 90//70
f 95//71 92//71 91//71
f 96//72 89//72 92//72
f 90//67 91//67 92//67
f 96//68 95//68 94//68
f 93//69 94//69 90//69
f 94//70 95//70 91//70
f 95//71 96//71 92//71
f 96//72 93//72 89//72
o cr_console.006
v 20.800003 -12.349999 0.125000
v 28.300003 -12.349999 0.125000
v 28.300003 -11.450000 0.125000
v 20.800003 -11.450000 0.125000
v 20.800003 -12.349999 0.975000
v 28.300003 -12.349999 0.975000
v 28.300003 -11.450000 0.975000
v 20.800003 -11.450000 0.975000
vn -0.0000 -0.0000 1.0000
vn -0.0000 -0.0000 -1.0000
vn -0.0000 1.0000 -0.0000
vn -1.0000 -0.0000 -0.0000
vn -0.0000 -1.0000 -0.0000
vn 1.0000 -0.0000 -0.0000
s 0
usemtl mat_dark_metal
f 98//73 100//73 97//73
f 104//74 102//74 101//74
f 101//75 98//75 97//75
f 102//76 99//76 98//76
f 103//77 100//77 99//77
f 104//78 97//78 100//78
f 98//73 99//73 100//73
f 104//74 103//74 102//74
f 101//75 102//75 98//75
f 102//76 103//76 99//76
f 103//77 104//77 100//77
f 104//78 101//78 97//78
o cr_console_top.006
v 20.700003 -12.424999 0.980000
v 28.400003 -12.424999 0.980000
v 28.400003 -11.375000 0.980000
v 20.700003 -11.375000 0.980000
v 20.700003 -12.424999 1.060000
v 28.400003 -12.424999 1.060000
v 28.400003 -11.375000 1.060000
v 20.700003 -11.375000 1.060000
vn -0.0000 -0.0000 1.0000
vn -0.0000 -0.0000 -1.0000
vn -0.0000 1.0000 -0.0000
vn -1.0000 -0.0000 -0.0000
vn -0.0000 -1.0000 -0.0000
vn 1.0000 -0.0000 -0.0000
s 0
usemtl mat_structure
f 106//79 108//79 105//79
f 112//80 110//80 109//80
f 109//81 106//81 105//81
f 110//82 107//82 106//82
f 111//83 108//83 107//83
f 112//84 105//84 108//84
f 106//79 107//79 108//79
f 112//80 111//80 110//80
f 109//81 110//81 106//81
f 110//82 111//82 107//82
f 111//83 112//83 108//83
f 112//84 109//84 105//84
o cr_monitor.024
v 20.500002 -11.605183 1.160851
v 21.800001 -11.605183 1.160851
v 21.800001 -11.506156 1.146934
v 20.500002 -11.506156 1.146934
v 20.500002 -11.493844 1.953066
v 21.800001 -11.493844 1.953066
v 21.800001 -11.394817 1.939149
v 20.500002 -11.394817 1.939149
vn -0.0000 0.1392 0.9903
vn -0.0000 -0.1392 -0.9903
vn -0.0000 0.9903 -0.1392
vn -1.0000 -0.0000 -0.0000
vn -0.0000 -0.9903 0.1392
vn 1.0000 -0.0000 -0.0000
s 0
usemtl mat_dark_metal
f 114//85 116//85 113//85
f 120//86 118//86 117//86
f 117//87 114//87 113//87
f 118//88 115//88 114//88
f 119//89 116//89 115//89
f 120//90 113//90 116//90
f 114//85 115//85 116//85
f 120//86 119//86 118//86
f 117//87 118//87 114//87
f 118//88 119//88 115//88
f 119//89 120//89 116//89
f 120//90 117//90 113//90
o cr_monitor.025
v 22.299997 -11.605183 1.160851
v 23.599997 -11.605183 1.160851
v 23.599997 -11.506156 1.146934
v 22.299997 -11.506156 1.146934
v 22.299997 -11.493844 1.953066
v 23.599997 -11.493844 1.953066
v 23.599997 -11.394817 1.939149
v 22.299997 -11.394817 1.939149
vn -0.0000 0.1392 0.9903
vn -0.0000 -0.1392 -0.9903
vn -0.0000 0.9903 -0.1392
vn -1.0000 -0.0000 -0.0000
vn -0.0000 -0.9903 0.1392
vn 1.0000 -0.0000 -0.0000
s 0
usemtl mat_dark_metal
f 122//91 124//91 121//91
f 128//92 126//92 125//92
f 125//93 122//93 121//93
f 126//94 123//94 122//94
f 127//95 124//95 123//95
f 128//96 121//96 124//96
f 122//91 123//91 124//91
f 128//92 127//92 126//92
f 125//93 126//93 122//93
f 126//94 127//94 123//94
f 127//95 128//95 124//95
f 128//96 125//96 121//96
o cr_monitor.026
v 24.100000 -11.605183 1.160851
v 25.400000 -11.605183 1.160851
v 25.400000 -11.506156 1.146934
v 24.100000 -11.506156 1.146934
v 24.100000 -11.493844 1.953066
v 25.400000 -11.493844 1.953066
v 25.400000 -11.394817 1.939149
v 24.100000 -11.394817 1.939149
vn -0.0000 0.1392 0.9903
vn -0.0000 -0.1392 -0.9903
vn -0.0000 0.9903 -0.1392
vn -1.0000 -0.0000 -0.0000
vn -0.0000 -0.9903 0.1392
vn 1.0000 -0.0000 -0.0000
s 0
usemtl mat_dark_metal
f 130//97 132//97 129//97
f 136//98 134//98 133//98
f 133//99 130//99 129//99
f 134//100 131//100 130//100
f 135//101 132//101 131//101
f 136//102 129//102 132//102
f 130//97 131//97 132//97
f 136//98 135//98 134//98
f 133//99 134//99 130//99
f 134//100 135//100 131//100
f 135//101 136//101 132//101
f 136//102 133//102 129//102
o cr_monitor.027
v 25.900003 -11.605183 1.160851
v 27.200003 -11.605183 1.160851
v 27.200003 -11.506156 1.146934
v 25.900003 -11.506156 1.146934
v 25.900003 -11.493844 1.953066
v 27.200003 -11.493844 1.953066
v 27.200003 -11.394817 1.939149
v 25.900003 -11.394817 1.939149
vn -0.0000 0.1392 0.9903
vn -0.0000 -0.1392 -0.9903
vn -0.0000 0.9903 -0.1392
vn -1.0000 -0.0000 -0.0000
vn -0.0000 -0.9903 0.1392
vn 1.0000 -0.0000 -0.0000
s 0
usemtl mat_dark_metal
f 138//103 140//103 137//103
f 144//104 142//104 141//104
f 141//105 138//105 137//105
f 142//106 139//106 138//106
f 143//107 140//107 139//107
f 144//108 137//108 140//108
f 138//103 139//103 140//103
f 144//104 143//104 142//104
f 141//105 142//105 138//105
f 142//106 143//106 139//106
f 143//107 144//107 140//107
f 144//108 141//108 137//108
o cr_server_rack.006
v 19.299997 -16.200001 0.000000
v 20.099997 -16.200001 0.000000
v 20.099997 -15.000000 0.000000
v 19.299997 -15.000000 0.000000
v 19.299997 -16.200001 2.000000
v 20.099997 -16.200001 2.000000
v 20.099997 -15.000000 2.000000
v 19.299997 -15.000000 2.000000
vn -0.0000 -0.0000 1.0000
vn -0.0000 -0.0000 -1.0000
vn -0.0000 1.0000 -0.0000
vn -1.0000 -0.0000 -0.0000
vn -0.0000 -1.0000 -0.0000
vn 1.0000 -0.0000 -0.0000
s 0
usemtl mat_dark_metal
f 146//109 148//109 145//109
f 152//110 150//110 149//110
f 149//111 146//111 145//111
f 150//112 147//112 146//112
f 151//113 148//113 147//113
f 152//114 145//114 148//114
f 146//109 147//109 148//109
f 152//110 151//110 150//110
f 149//111 150//111 146//111
f 150//112 151//112 147//112
f 151//113 152//113 148//113
f 152//114 149//114 145//114
o cr_cabinet.006
v 27.400003 -16.600000 0.000000
v 28.200003 -16.600000 0.000000
v 28.200003 -14.600000 0.000000
v 27.400003 -14.600000 0.000000
v 27.400003 -16.600000 1.800000
v 28.200003 -16.600000 1.800000
v 28.200003 -14.600000 1.800000
v 27.400003 -14.600000 1.800000
vn -0.0000 -0.0000 1.0000
vn -0.0000 -0.0000 -1.0000
vn -0.0000 1.0000 -0.0000
vn -1.0000 -0.0000 -0.0000
vn -0.0000 -1.0000 -0.0000
vn 1.0000 -0.0000 -0.0000
s 0
usemtl mat_steel_lt
f 154//115 156//115 153//115
f 160//116 158//116 157//116
f 157//117 154//117 153//117
f 158//118 155//118 154//118
f 159//119 156//119 155//119
f 160//120 153//120 156//120
f 154//115 155//115 156//115
f 160//116 159//116 158//116
f 157//117 158//117 154//117
f 158//118 159//118 155//118
f 159//119 160//119 156//119
f 160//120 157//120 153//120
