# Blender 5.1.1
# www.blender.org
mtllib secondary_processor.mtl
o sec_infeed_conveyor_belt.006
v 8.662791 8.165271 4.258439
v 11.762792 8.665271 6.358438
v 11.492097 10.343581 6.358438
v 8.392097 9.843581 4.258439
v 8.607909 8.156419 4.341562
v 11.707910 8.656419 6.441562
v 11.437215 10.334729 6.441562
v 8.337214 9.834729 4.341562
vn -0.5488 -0.0885 0.8312
vn 0.5488 0.0885 -0.8312
vn -0.1592 0.9872 -0.0000
vn -0.8206 -0.1324 -0.5559
vn 0.1592 -0.9872 -0.0000
vn 0.8206 0.1324 0.5559
s 0
usemtl mat_belt
f 2//1 4//1 1//1
f 8//2 6//2 5//2
f 5//3 2//3 1//3
f 6//4 3//4 2//4
f 7//5 4//5 3//5
f 8//6 1//6 4//6
f 2//1 3//1 4//1
f 8//2 7//2 6//2
f 5//3 6//3 2//3
f 6//4 7//4 3//4
f 7//5 8//5 4//5
f 8//6 5//6 1//6
o sec_infeed_conveyor_frame.006
v 8.787497 8.003058 3.812971
v 11.887497 8.503058 5.912971
v 11.559479 10.536776 5.912971
v 8.459478 10.036776 3.812971
v 8.540527 7.963225 4.187029
v 11.640528 8.463224 6.287029
v 11.312510 10.496942 6.287029
v 8.212509 9.996942 4.187029
vn -0.5488 -0.0885 0.8312
vn 0.5488 0.0885 -0.8312
vn -0.1592 0.9872 -0.0000
vn -0.8206 -0.1324 -0.5559
vn 0.1592 -0.9872 -0.0000
vn 0.8206 0.1324 0.5559
s 0
usemtl mat_steel_blue
f 10//7 12//7 9//7
f 16//8 14//8 13//8
f 13//9 10//9 9//9
f 14//10 11//10 10//10
f 15//11 12//11 11//11
f 16//12 9//12 12//12
f 10//7 11//7 12//7
f 16//8 15//8 14//8
f 13//9 14//9 10//9
f 14//10 15//10 11//10
f 15//11 16//11 12//11
f 16//12 13//12 9//12
o sec_infeed_conveyor_side.012
v 8.465570 9.946595 4.285440
v 11.565571 10.446595 6.385440
v 11.549648 10.545320 6.385440
v 8.449648 10.045320 4.285440
v 8.235065 9.909417 4.634561
v 11.335066 10.409417 6.734560
v 11.319143 10.508142 6.734560
v 8.219143 10.008142 4.634561
vn -0.5488 -0.0885 0.8312
vn 0.5488 0.0885 -0.8312
vn -0.1592 0.9872 -0.0000
vn -0.8206 -0.1324 -0.5559
vn 0.1592 -0.9872 -0.0000
vn 0.8206 0.1324 0.5559
s 0
usemtl mat_steel_blue
f 18//13 20//13 17//13
f 24//14 22//14 21//14
f 21//15 18//15 17//15
f 22//16 19//16 18//16
f 23//17 20//17 19//17
f 24//18 17//18 20//18
f 18//13 19//13 20//13
f 24//14 23//14 22//14
f 21//15 22//15 18//15
f 22//16 23//16 19//16
f 23//17 24//17 20//17
f 24//18 21//18 17//18
o sec_infeed_conveyor_side.013
v 8.780855 7.991858 4.285440
v 11.880856 8.491858 6.385440
v 11.864933 8.590583 6.385440
v 8.764933 8.090583 4.285440
v 8.550350 7.954680 4.634561
v 11.650351 8.454680 6.734560
v 11.634428 8.553405 6.734560
v 8.534428 8.053405 4.634561
vn -0.5488 -0.0885 0.8312
vn 0.5488 0.0885 -0.8312
vn -0.1592 0.9872 -0.0000
vn -0.8206 -0.1324 -0.5559
vn 0.1592 -0.9872 -0.0000
vn 0.8206 0.1324 0.5559
s 0
usemtl mat_steel_blue
f 26//19 28//19 25//19
f 32//20 30//20 29//20
f 29//21 26//21 25//21
f 30//22 27//22 26//22
f 31//23 28//23 27//23
f 32//24 25//24 28//24
f 26//19 27//19 28//19
f 32//20 31//20 30//20
f 29//21 30//21 26//21
f 30//22 31//22 27//22
f 31//23 32//23 28//23
f 32//24 29//24 25//24
o sec_infeed_conveyor_drum.012
v 8.582151 8.101619 3.937891
v 8.951437 8.161180 4.188052
v 8.664818 9.938215 4.188052
v 8.295533 9.878653 3.937891
v 8.335182 8.061785 4.311948
v 8.704467 8.121347 4.562109
v 8.417849 9.898381 4.562109
v 8.048563 9.838820 4.311948
vn -0.5488 -0.0885 0.8312
vn 0.5488 0.0885 -0.8312
vn -0.1592 0.9872 -0.0000
vn -0.8206 -0.1324 -0.5559
vn 0.1592 -0.9872 -0.0000
vn 0.8206 0.1324 0.5559
s 0
usemtl mat_dark_metal
f 34//25 36//25 33//25
f 40//26 38//26 37//26
f 37//27 34//27 33//27
f 38//28 35//28 34//28
f 39//29 36//29 35//29
f 40//30 33//30 36//30
f 34//25 35//25 36//25
f 40//26 39//26 38//26
f 37//27 38//27 34//27
f 38//28 39//28 35//28
f 39//29 40//29 36//29
f 40//30 37//30 33//30
o sec_infeed_conveyor_drum.013
v 11.682150 8.601619 6.037890
v 12.051435 8.661180 6.288052
v 11.764816 10.438215 6.288052
v 11.395532 10.378653 6.037890
v 11.435181 8.561785 6.411948
v 11.804465 8.621347 6.662109
v 11.517847 10.398381 6.662109
v 11.148561 10.338820 6.411948
vn -0.5488 -0.0885 0.8312
vn 0.5488 0.0885 -0.8312
vn -0.1592 0.9872 -0.0000
vn -0.8206 -0.1324 -0.5559
vn 0.1592 -0.9872 -0.0000
vn 0.8206 0.1324 0.5559
s 0
usemtl mat_dark_metal
f 42//31 44//31 41//31
f 48//32 46//32 45//32
f 45//33 42//33 41//33
f 46//34 43//34 42//34
f 47//35 44//35 43//35
f 48//36 41//36 44//36
f 42//31 43//31 44//31
f 48//32 47//32 46//32
f 45//33 46//33 42//33
f 46//34 47//34 43//34
f 47//35 48//35 44//35
f 48//36 45//36 41//36
o sec_infeed_conveyor_leg.024
v 9.069649 9.894156 0.000000
v 9.209648 9.894156 0.000000
v 9.209648 10.034155 0.000000
v 9.069649 10.034155 0.000000
v 9.069649 9.894156 4.275000
v 9.209648 9.894156 4.275000
v 9.209648 10.034155 4.275000
v 9.069649 10.034155 4.275000
vn -0.0000 -0.0000 1.0000
vn -0.0000 -0.0000 -1.0000
vn -0.0000 1.0000 -0.0000
vn -1.0000 -0.0000 -0.0000
vn -0.0000 -1.0000 -0.0000
vn 1.0000 -0.0000 -0.0000
s 0
usemtl mat_steel_blue
f 50//37 52//37 49//37
f 56//38 54//38 53//38
f 53//39 50//39 49//39
f 54//40 51//40 50//40
f 55//41 52//41 51//41
f 56//42 49//42 52//42
f 50//37 51//37 52//37
f 56//38 55//38 54//38
f 53//39 54//39 50//39
f 54//40 55//40 51//40
f 55//41 56//41 52//41
f 56//42 53//42 49//42
o sec_infeed_conveyor_leg.025
v 9.340347 8.215845 0.000000
v 9.480347 8.215845 0.000000
v 9.480347 8.355844 0.000000
v 9.340347 8.355844 0.000000
v 9.340347 8.215845 4.275000
v 9.480347 8.215845 4.275000
v 9.480347 8.355844 4.275000
v 9.340347 8.355844 4.275000
vn -0.0000 -0.0000 1.0000
vn -0.0000 -0.0000 -1.0000
vn -0.0000 1.0000 -0.0000
vn -1.0000 -0.0000 -0.0000
vn -0.0000 -1.0000 -0.0000
vn 1.0000 -0.0000 -0.0000
s 0
usemtl mat_steel_blue
f 58//43 60//43 57//43
f 64//44 62//44 61//44
f 61//45 58//45 57//45
f 62//46 59//46 58//46
f 63//47 60//47 59//47
f 64//48 57//48 60//48
f 58//43 59//43 60//43
f 64//44 63//44 62//44
f 61//45 62//45 58//45
f 62//46 63//46 59//46
f 63//47 64//47 60//47
f 64//48 61//48 57//48
o sec_infeed_conveyor_leg.026
v 10.619652 10.144156 0.000000
v 10.759651 10.144156 0.000000
v 10.759651 10.284155 0.000000
v 10.619652 10.284155 0.000000
v 10.619652 10.144156 5.325000
v 10.759651 10.144156 5.325000
v 10.759651 10.284155 5.325000
v 10.619652 10.284155 5.325000
vn -0.0000 -0.0000 1.0000
vn -0.0000 -0.0000 -1.0000
vn -0.0000 1.0000 -0.0000
vn -1.0000 -0.0000 -0.0000
vn -0.0000 -1.0000 -0.0000
vn 1.0000 -0.0000 -0.0000
s 0
usemtl mat_steel_blue
f 66//49 68//49 65//49
f 72//50 70//50 69//50
f 69//51 66//51 65//51
f 70//52 67//52 66//52
f 71//53 68//53 67//53
f 72//54 65//54 68//54
f 66//49 67//49 68//49
f 72//50 71//50 70//50
f 69//51 70//51 66//51
f 70//52 71//52 67//52
f 71//53 72//53 68//53
f 72//54 69//54 65//54
o sec_infeed_conveyor_leg.027
v 10.890350 8.465845 0.000000
v 11.030350 8.465845 0.000000
v 11.030350 8.605844 0.000000
v 10.890350 8.605844 0.000000
v 10.890350 8.465845 5.325000
v 11.030350 8.465845 5.325000
v 11.030350 8.605844 5.325000
v 10.890350 8.605844 5.325000
vn -0.0000 -0.0000 1.0000
vn -0.0000 -0.0000 -1.0000
vn -0.0000 1.0000 -0.0000
vn -1.0000 -0.0000 -0.0000
vn -0.0000 -1.0000 -0.0000
vn 1.0000 -0.0000 -0.0000
s 0
usemtl mat_steel_blue
f 74//55 76//55 73//55
f 80//56 78//56 77//56
f 77//57 74//57 73//57
f 78//58 75//58 74//58
f 79//59 76//59 75//59
f 80//60 73//60 76//60
f 74//55 75//55 76//55
f 80//56 79//56 78//56
f 77//57 78//57 74//57
f 78//58 79//58 75//58
f 79//59 80//59 76//59
f 80//60 77//60 73//60
o sec_base.006
v 10.800000 5.700000 0.000000
v 17.200001 5.700000 0.000000
v 17.200001 11.300000 0.000000
v 10.800000 11.300000 0.000000
v 10.800000 5.700000 0.800000
v 17.200001 5.700000 0.800000
v 17.200001 11.300000 0.800000
v 10.800000 11.300000 0.800000
vn -0.0000 -0.0000 1.0000
vn -0.0000 -0.0000 -1.0000
vn -0.0000 1.0000 -0.0000
vn -1.0000 -0.0000 -0.0000
vn -0.0000 -1.0000 -0.0000
vn 1.0000 -0.0000 -0.0000
s 0
usemtl mat_dark_metal
f 82//61 84//61 81//61
f 88//62 86//62 85//62
f 85//63 82//63 81//63
f 86//64 83//64 82//64
f 87//65 84//65 83//65
f 88//66 81//66 84//66
f 82//61 83//61 84//61
f 88//62 87//62 86//62
f 85//63 86//63 82//63
f 86//64 87//64 83//64
f 87//65 88//65 84//65
f 88//66 85//66 81//66
o sec_body.006
v 11.300000 6.200000 0.800000
v 16.700001 6.200000 0.800000
v 16.700001 10.800000 0.800000
v 11.300000 10.800000 0.800000
v 11.300000 6.200000 4.400000
v 16.700001 6.200000 4.400000
v 16.700001 10.800000 4.400000
v 11.300000 10.800000 4.400000
vn -0.0000 -0.0000 1.0000
vn -0.0000 -0.0000 -1.0000
vn -0.0000 1.0000 -0.0000
vn -1.0000 -0.0000 -0.0000
vn -0.0000 -1.0000 -0.0000
vn 1.0000 -0.0000 -0.0000
s 0
usemtl mat_steel_blue
f 90//67 92//67 89//67
f 96//68 94//68 93//68
f 93//69 90//69 89//69
f 94//70 91//70 90//70
f 95//71 92//71 91//71
f 96//72 89//72 92//72
f 90//67 91//67 92//67
f 96//68 95//68 94//68
f 93//69 94//69 90//69
f 94//70 95//70 91//70
f 95//71 96//71 92//71
f 96//72 93//72 89//72
o sec_cover.006
v 11.700000 6.500000 4.350000
v 16.299999 6.500000 4.350000
v 16.299999 10.500000 4.350000
v 11.700000 10.500000 4.350000
v 11.700000 6.500000 4.850000
v 16.299999 6.500000 4.850000
v 16.299999 10.500000 4.850000
v 11.700000 10.500000 4.850000
vn -0.0000 -0.0000 1.0000
vn -0.0000 -0.0000 -1.0000
vn -0.0000 1.0000 -0.0000
vn -1.0000 -0.0000 -0.0000
vn -0.0000 -1.0000 -0.0000
vn 1.0000 -0.0000 -0.0000
s 0
usemtl mat_orange
f 98//73 100//73 97//73
f 104//74 102//74 101//74
f 101//75 98//75 97//75
f 102//76 99//76 98//76
f 103//77 100//77 99//77
f 104//78 97//78 100//78
f 98//73 99//73 100//73
f 104//74 103//74 102//74
f 101//75 102//75 98//75
f 102//76 103//76 99//76
f 103//77 104//77 100//77
f 104//78 101//78 97//78
o sec_hopper.006
v 15.838477 10.338477 4.850000
v 12.161523 10.338477 4.850000
v 12.161523 6.661522 4.850000
v 15.838477 6.661522 4.850000
v 16.687006 11.187006 6.750000
v 11.312994 11.187006 6.750000
v 11.312994 5.812994 6.750000
v 16.687006 5.812994 6.750000
vn -0.0000 0.9131 -0.4078
vn -0.9131 -0.0000 -0.4078
vn -0.0000 -0.9131 -0.4078
vn 0.9131 -0.0000 -0.4078
vn -0.0000 -0.0000 -1.0000
vn -0.0000 -0.0000 1.0000
s 0
usemtl mat_steel_lt
f 106//79 109//79 105//79
f 107//80 110//80 106//80
f 108//81 111//81 107//81
f 105//82 112//82 108//82
f 107//83 105//83 108//83
f 110//84 112//84 109//84
f 106//79 110//79 109//79
f 107//80 111//80 110//80
f 108//81 112//81 111//81
f 105//82 109//82 112//82
f 107//83 106//83 105//83
f 110//84 111//84 112//84
o sec_drive.006
v 16.200001 9.900000 1.500000
v 16.200001 10.244414 1.568509
v 16.200001 10.536396 1.763604
v 16.200001 10.731491 2.055585
v 16.200001 10.799999 2.400000
v 16.200001 10.731491 2.744415
v 16.200001 10.536396 3.036396
v 16.200001 10.244414 3.231492
v 16.200001 9.900000 3.300000
v 16.200001 9.555585 3.231492
v 16.200001 9.263603 3.036396
v 16.200001 9.068508 2.744415
v 16.200001 9.000000 2.400000
v 16.200001 9.068508 2.055585
v 16.200001 9.263603 1.763604
v 16.200001 9.555585 1.568509
v 18.600002 9.900000 1.500000
v 18.600002 10.244414 1.568508
v 18.600002 10.536396 1.763604
v 18.600002 10.731491 2.055585
v 18.600002 10.799999 2.400000
v 18.600002 10.731491 2.744415
v 18.600002 10.536396 3.036396
v 18.600002 10.244414 3.231492
v 18.600002 9.900000 3.300000
v 18.600002 9.555585 3.231492
v 18.600002 9.263603 3.036396
v 18.600002 9.068508 2.744415
v 18.600002 9.000000 2.400000
v 18.600002 9.068508 2.055585
v 18.600002 9.263603 1.763604
v 18.600002 9.555585 1.568508
vn -0.0000 0.1951 -0.9808
vn -0.0000 0.5556 -0.8315
vn -0.0000 0.8315 -0.5556
vn -0.0000 0.9808 -0.1951
vn -0.0000 0.9808 0.1951
vn -0.0000 0.8315 0.5556
vn -0.0000 0.5556 0.8315
vn -0.0000 0.1951 0.9808
vn -0.0000 -0.1951 0.9808
vn -0.0000 -0.5556 0.8315
vn -0.0000 -0.8315 0.5556
vn -0.0000 -0.9808 0.1951
vn -0.0000 -0.9808 -0.1951
vn -0.0000 -0.8315 -0.5556
vn -0.0000 -0.5556 -0.8315
vn -0.0000 -0.1951 -0.9808
vn -1.0000 -0.0000 -0.0000
vn 1.0000 -0.0000 -0.0000
s 0
usemtl mat_dark_metal
f 114//85 129//85 113//85
f 115//86 130//86 114//86
f 116//87 131//87 115//87
f 117//88 132//88 116//88
f 118//89 133//89 117//89
f 119//90 134//90 118//90
f 120//91 135//91 119//91
f 121//92 136//92 120//92
f 122//93 137//93 121//93
f 123//94 138//94 122//94
f 124//95 139//95 123//95
f 125//96 140//96 124//96
f 126//97 141//97 125//97
f 127//98 142//98 126//98
f 128//99 143//99 127//99
f 113//100 144//100 128//100
f 121//101 117//101 113//101
f 136//102 140//102 144//102
f 114//85 130//85 129//85
f 115//86 131//86 130//86
f 116//87 132//87 131//87
f 117//88 133//88 132//88
f 118//89 134//89 133//89
f 119//90 135//90 134//90
f 120//91 136//91 135//91
f 121//92 137//92 136//92
f 122//93 138//93 137//93
f 123//94 139//94 138//94
f 124//95 140//95 139//95
f 125//96 141//96 140//96
f 126//97 142//97 141//97
f 127//98 143//98 142//98
f 128//99 144//99 143//99
f 113//100 129//100 144//100
f 113//101 128//101 127//101
f 127//101 126//101 125//101
f 125//101 124//101 123//101
f 123//101 122//101 121//101
f 121//101 120//101 119//101
f 119//101 118//101 117//101
f 117//101 116//101 115//101
f 115//101 114//101 113//101
f 113//101 127//101 125//101
f 125//101 123//101 121//101
f 121//101 119//101 117//101
f 117//101 115//101 113//101
f 113//101 125//101 121//101
f 144//102 129//102 130//102
f 130//102 131//102 132//102
f 132//102 133//102 134//102
f 134//102 135//102 136//102
f 136//102 137//102 138//102
f 138//102 139//102 140//102
f 140//102 141//102 142//102
f 142//102 143//102 144//102
f 144//102 130//102 132//102
f 132//102 134//102 136//102
f 136//102 138//102 140//102
f 140//102 142//102 144//102
f 144//102 132//102 136//102
o sec_control_cabinet.006
v 9.599997 4.900000 0.000000
v 10.799997 4.900000 0.000000
v 10.799997 6.500000 0.000000
v 9.599997 6.500000 0.000000
v 9.599997 4.900000 2.000000
v 10.799997 4.900000 2.000000
v 10.799997 6.500000 2.000000
v 9.599997 6.500000 2.000000
vn -0.0000 -0.0000 1.0000
vn -0.0000 -0.0000 -1.0000
vn -0.0000 1.0000 -0.0000
vn -1.0000 -0.0000 -0.0000
vn -0.0000 -1.0000 -0.0000
vn 1.0000 -0.0000 -0.0000
s 0
usemtl mat_steel_lt
f 146//103 148//103 145//103
f 152//104 150//104 149//104
f 149//105 146//105 145//105
f 150//106 147//106 146//106
f 151//107 148//107 147//107
f 152//108 145//108 148//108
f 146//103 147//103 148//103
f 152//104 151//104 150//104
f 149//105 150//105 146//105
f 150//106 151//106 147//106
f 151//107 152//107 148//107
f 152//108 149//108 145//108
o sec_platform_deck.006
v 10.500000 3.200000 3.710000
v 17.500000 3.200000 3.710000
v 17.500000 5.400000 3.710000
v 10.500000 5.400000 3.710000
v 10.500000 3.200000 3.890000
v 17.500000 3.200000 3.890000
v 17.500000 5.400000 3.890000
v 10.500000 5.400000 3.890000
vn -0.0000 -0.0000 1.0000
vn -0.0000 -0.0000 -1.0000
vn -0.0000 1.0000 -0.0000
vn -1.0000 -0.0000 -0.0000
vn -0.0000 -1.0000 -0.0000
vn 1.0000 -0.0000 -0.0000
s 0
usemtl mat_structure
f 154//109 156//109 153//109
f 160//110 158//110 157//110
f 157//111 154//111 153//111
f 158//112 155//112 154//112
f 159//113 156//113 155//113
f 160//114 153//114 156//114
f 154//109 155//109 156//109
f 160//110 159//110 158//110
f 157//111 158//111 154//111
f 158//112 159//112 155//112
f 159//113 160//113 156//113
f 160//114 157//114 153//114
o sec_platform_leg.024
v 10.810001 3.410000 0.000000
v 10.990002 3.410000 0.000000
v 10.990002 3.590000 0.000000
v 10.810001 3.590000 0.000000
v 10.810001 3.410000 3.800000
v 10.990002 3.410000 3.800000
v 10.990002 3.590000 3.800000
v 10.810001 3.590000 3.800000
vn -0.0000 -0.0000 1.0000
vn -0.0000 -0.0000 -1.0000
vn -0.0000 1.0000 -0.0000
vn -1.0000 -0.0000 -0.0000
vn -0.0000 -1.0000 -0.0000
vn 1.0000 -0.0000 -0.0000
s 0
usemtl mat_structure
f 162//115 164//115 161//115
f 168//116 166//116 165//116
f 165//117 162//117 161//117
f 166//118 163//118 162//118
f 167//119 164//119 163//119
f 168//120 161//120 164//120
f 162//115 163//115 164//115
f 168//116 167//116 166//116
f 165//117 166//117 162//117
f 166//118 167//118 163//118
f 167//119 168//119 164//119
f 168//120 165//120 161//120
o sec_platform_leg.025
v 10.810001 5.010000 0.000000
v 10.990002 5.010000 0.000000
v 10.990002 5.190000 0.000000
v 10.810001 5.190000 0.000000
v 10.810001 5.010000 3.800000
v 10.990002 5.010000 3.800000
v 10.990002 5.190000 3.800000
v 10.810001 5.190000 3.800000
vn -0.0000 -0.0000 1.0000
vn -0.0000 -0.0000 -1.0000
vn -0.0000 1.0000 -0.0000
vn -1.0000 -0.0000 -0.0000
vn -0.0000 -1.0000 -0.0000
vn 1.0000 -0.0000 -0.0000
s 0
usemtl mat_structure
f 170//121 172//121 169//121
f 176//122 174//122 173//122
f 173//123 170//123 169//123
f 174//124 171//124 170//124
f 175//125 172//125 171//125
f 176//126 169//126 172//126
f 170//121 171//121 172//121
f 176//122 175//122 174//122
f 173//123 174//123 170//123
f 174//124 175//124 171//124
f 175//125 176//125 172//125
f 176//126 173//126 169//126
o sec_platform_leg.026
v 17.009998 3.410000 0.000000
v 17.189999 3.410000 0.000000
v 17.189999 3.590000 0.000000
v 17.009998 3.590000 0.000000
v 17.009998 3.410000 3.800000
v 17.189999 3.410000 3.800000
v 17.189999 3.590000 3.800000
v 17.009998 3.590000 3.800000
vn -0.0000 -0.0000 1.0000
vn -0.0000 -0.0000 -1.0000
vn -0.0000 1.0000 -0.0000
vn -1.0000 -0.0000 -0.0000
vn -0.0000 -1.0000 -0.0000
vn 1.0000 -0.0000 -0.0000
s 0
usemtl mat_structure
f 178//127 180//127 177//127
f 184//128 182//128 181//128
f 181//129 178//129 177//129
f 182//130 179//130 178//130
f 183//131 180//131 179//131
f 184//132 177//132 180//132
f 178//127 179//127 180//127
f 184//128 183//128 182//128
f 181//129 182//129 178//129
f 182//130 183//130 179//130
f 183//131 184//131 180//131
f 184//132 181//132 177//132
o sec_platform_leg.027
v 17.009998 5.010000 0.000000
v 17.189999 5.010000 0.000000
v 17.189999 5.190000 0.000000
v 17.009998 5.190000 0.000000
v 17.009998 5.010000 3.800000
v 17.189999 5.010000 3.800000
v 17.189999 5.190000 3.800000
v 17.009998 5.190000 3.800000
vn -0.0000 -0.0000 1.0000
vn -0.0000 -0.0000 -1.0000
vn -0.0000 1.0000 -0.0000
vn -1.0000 -0.0000 -0.0000
vn -0.0000 -1.0000 -0.0000
vn 1.0000 -0.0000 -0.0000
s 0
usemtl mat_structure
f 186//133 188//133 185//133
f 192//134 190//134 189//134
f 189//135 186//135 185//135
f 190//136 187//136 186//136
f 191//137 188//137 187//137
f 192//138 185//138 188//138
f 186//133 187//133 188//133
f 192//134 191//134 190//134
f 189//135 190//135 186//135
f 190//136 191//136 187//136
f 191//137 192//137 188//137
f 192//138 189//138 185//138
o sec_platform_rl_post.024
v 10.460000 3.160000 3.890000
v 10.540000 3.160000 3.890000
v 10.540000 3.240000 3.890000
v 10.460000 3.240000 3.890000
v 10.460000 3.160000 4.990000
v 10.540000 3.160000 4.990000
v 10.540000 3.240000 4.990000
v 10.460000 3.240000 4.990000
vn -0.0000 -0.0000 1.0000
vn -0.0000 -0.0000 -1.0000
vn -0.0000 1.0000 -0.0000
vn -1.0000 -0.0000 -0.0000
vn -0.0000 -1.0000 -0.0000
vn 1.0000 -0.0000 -0.0000
s 0
usemtl mat_yellow
f 194//139 196//139 193//139
f 200//140 198//140 197//140
f 197//141 194//141 193//141
f 198//142 195//142 194//142
f 199//143 196//143 195//143
f 200//144 193//144 196//144
f 194//139 195//139 196//139
f 200//140 199//140 198//140
f 197//141 198//141 194//141
f 198//142 199//142 195//142
f 199//143 200//143 196//143
f 200//144 197//144 193//144
o sec_platform_rl_post.025
v 12.793336 3.160000 3.890000
v 12.873336 3.160000 3.890000
v 12.873336 3.240000 3.890000
v 12.793336 3.240000 3.890000
v 12.793336 3.160000 4.990000
v 12.873336 3.160000 4.990000
v 12.873336 3.240000 4.990000
v 12.793336 3.240000 4.990000
vn -0.0000 -0.0000 1.0000
vn -0.0000 -0.0000 -1.0000
vn -0.0000 1.0000 -0.0000
vn -1.0000 -0.0000 -0.0000
vn -0.0000 -1.0000 -0.0000
vn 1.0000 -0.0000 -0.0000
s 0
usemtl mat_yellow
f 202//145 204//145 201//145
f 208//146 206//146 205//146
f 205//147 202//147 201//147
f 206//148 203//148 202//148
f 207//149 204//149 203//149
f 208//150 201//150 204//150
f 202//145 203//145 204//145
f 208//146 207//146 206//146
f 205//147 206//147 202//147
f 206//148 207//148 203//148
f 207//149 208//149 204//149
f 208//150 205//150 201//150
o sec_platform_rl_post.026
v 15.126664 3.160000 3.890000
v 15.206664 3.160000 3.890000
v 15.206664 3.240000 3.890000
v 15.126664 3.240000 3.890000
v 15.126664 3.160000 4.990000
v 15.206664 3.160000 4.990000
v 15.206664 3.240000 4.990000
v 15.126664 3.240000 4.990000
vn -0.0000 -0.0000 1.0000
vn -0.0000 -0.0000 -1.0000
vn -0.0000 1.0000 -0.0000
vn -1.0000 -0.0000 -0.0000
vn -0.0000 -1.0000 -0.0000
vn 1.0000 -0.0000 -0.0000
s 0
usemtl mat_yellow
f 210//151 212//151 209//151
f 216//152 214//152 213//152
f 213//153 210//153 209//153
f 214//154 211//154 210//154
f 215//155 212//155 211//155
f 216//156 209//156 212//156
f 210//151 211//151 212//151
f 216//152 215//152 214//152
f 213//153 214//153 210//153
f 214//154 215//154 211//154
f 215//155 216//155 212//155
f 216//156 213//156 209//156
o sec_platform_rl_post.027
v 17.459999 3.160000 3.890000
v 17.540001 3.160000 3.890000
v 17.540001 3.240000 3.890000
v 17.459999 3.240000 3.890000
v 17.459999 3.160000 4.990000
v 17.540001 3.160000 4.990000
v 17.540001 3.240000 4.990000
v 17.459999 3.240000 4.990000
vn -0.0000 -0.0000 1.0000
vn -0.0000 -0.0000 -1.0000
vn -0.0000 1.0000 -0.0000
vn -1.0000 -0.0000 -0.0000
vn -0.0000 -1.0000 -0.0000
vn 1.0000 -0.0000 -0.0000
s 0
usemtl mat_yellow
f 218//157 220//157 217//157
f 224//158 222//158 221//158
f 221//159 218//159 217//159
f 222//160 219//160 218//160
f 223//161 220//161 219//161
f 224//162 217//162 220//162
f 218//157 219//157 220//157
f 224//158 223//158 222//158
f 221//159 222//159 218//159
f 222//160 223//160 219//160
f 223//161 224//161 220//161
f 224//162 221//162 217//162
o sec_platform_rl_rail.012
v 10.500000 3.170000 4.955000
v 17.500000 3.170000 4.955000
v 17.500000 3.230000 4.955000
v 10.500000 3.230000 4.955000
v 10.500000 3.170000 5.025000
v 17.500000 3.170000 5.025000
v 17.500000 3.230000 5.025000
v 10.500000 3.230000 5.025000
vn -0.0000 -0.0000 1.0000
vn -0.0000 -0.0000 -1.0000
vn -0.0000 1.0000 -0.0000
vn -1.0000 -0.0000 -0.0000
vn -0.0000 -1.0000 -0.0000
vn 1.0000 -0.0000 -0.0000
s 0
usemtl mat_yellow
f 226//163 228//163 225//163
f 232//164 230//164 229//164
f 229//165 226//165 225//165
f 230//166 227//166 226//166
f 231//167 228//167 227//167
f 232//168 225//168 228//168
f 226//163 227//163 228//163
f 232//164 231//164 230//164
f 229//165 230//165 226//165
f 230//166 231//166 227//166
f 231//167 232//167 228//167
f 232//168 229//168 225//168
o sec_platform_rl_rail.013
v 10.500000 3.170000 4.460000
v 17.500000 3.170000 4.460000
v 17.500000 3.230000 4.460000
v 10.500000 3.230000 4.460000
v 10.500000 3.170000 4.530000
v 17.500000 3.170000 4.530000
v 17.500000 3.230000 4.530000
v 10.500000 3.230000 4.530000
vn -0.0000 -0.0000 1.0000
vn -0.0000 -0.0000 -1.0000
vn -0.0000 1.0000 -0.0000
vn -1.0000 -0.0000 -0.0000
vn -0.0000 -1.0000 -0.0000
vn 1.0000 -0.0000 -0.0000
s 0
usemtl mat_yellow
f 234//169 236//169 233//169
f 240//170 238//170 237//170
f 237//171 234//171 233//171
f 238//172 235//172 234//172
f 239//173 236//173 235//173
f 240//174 233//174 236//174
f 234//169 235//169 236//169
f 240//170 239//170 238//170
f 237//171 238//171 234//171
f 238//172 239//172 235//172
f 239//173 240//173 236//173
f 240//174 237//174 233//174
o sec_stairs_step.102
v 17.199999 -0.532353 0.081765
v 17.199999 -0.232353 0.081765
v 15.999998 -0.232353 0.081765
v 15.999998 -0.532353 0.081765
v 17.199999 -0.532353 0.141765
v 17.199999 -0.232353 0.141765
v 15.999998 -0.232353 0.141765
v 15.999998 -0.532353 0.141765
vn -0.0000 -0.0000 1.0000
vn -0.0000 -0.0000 -1.0000
vn -1.0000 -0.0000 -0.0000
vn -0.0000 -1.0000 -0.0000
vn 1.0000 -0.0000 -0.0000
vn -0.0000 1.0000 -0.0000
s 0
usemtl mat_structure
f 242//175 244//175 241//175
f 248//176 246//176 245//176
f 245//177 242//177 241//177
f 246//178 243//178 242//178
f 247//179 244//179 243//179
f 248//180 241//180 244//180
f 242//175 243//175 244//175
f 248//176 247//176 246//176
f 245//177 246//177 242//177
f 246//178 247//178 243//178
f 247//179 248//179 244//179
f 248//180 245//180 241//180
o sec_stairs_step.103
v 17.199999 -0.297059 0.305294
v 17.199999 0.002941 0.305294
v 15.999998 0.002941 0.305294
v 15.999998 -0.297059 0.305294
v 17.199999 -0.297059 0.365294
v 17.199999 0.002941 0.365294
v 15.999998 0.002941 0.365294
v 15.999998 -0.297059 0.365294
vn -0.0000 -0.0000 1.0000
vn -0.0000 -0.0000 -1.0000
vn -1.0000 -0.0000 -0.0000
vn -0.0000 -1.0000 -0.0000
vn 1.0000 -0.0000 -0.0000
vn -0.0000 1.0000 -0.0000
s 0
usemtl mat_structure
f 250//181 252//181 249//181
f 256//182 254//182 253//182
f 253//183 250//183 249//183
f 254//184 251//184 250//184
f 255//185 252//185 251//185
f 256//186 249//186 252//186
f 250//181 251//181 252//181
f 256//182 255//182 254//182
f 253//183 254//183 250//183
f 254//184 255//184 251//184
f 255//185 256//185 252//185
f 256//186 253//186 249//186
o sec_stairs_step.104
v 17.199999 -0.061765 0.528824
v 17.199999 0.238235 0.528824
v 15.999998 0.238235 0.528824
v 15.999998 -0.061765 0.528824
v 17.199999 -0.061765 0.588823
v 17.199999 0.238235 0.588823
v 15.999998 0.238235 0.588823
v 15.999998 -0.061765 0.588823
vn -0.0000 -0.0000 1.0000
vn -0.0000 -0.0000 -1.0000
vn -1.0000 -0.0000 -0.0000
vn -0.0000 -1.0000 -0.0000
vn 1.0000 -0.0000 -0.0000
vn -0.0000 1.0000 -0.0000
s 0
usemtl mat_structure
f 258//187 260//187 257//187
f 264//188 262//188 261//188
f 261//189 258//189 257//189
f 262//190 259//190 258//190
f 263//191 260//191 259//191
f 264//192 257//192 260//192
f 258//187 259//187 260//187
f 264//188 263//188 262//188
f 261//189 262//189 258//189
f 262//190 263//190 259//190
f 263//191 264//191 260//191
f 264//192 261//192 257//192
o sec_stairs_step.105
v 17.199999 0.173529 0.752353
v 17.199999 0.473529 0.752353
v 15.999998 0.473529 0.752353
v 15.999998 0.173529 0.752353
v 17.199999 0.173529 0.812353
v 17.199999 0.473529 0.812353
v 15.999998 0.473529 0.812353
v 15.999998 0.173529 0.812353
vn -0.0000 -0.0000 1.0000
vn -0.0000 -0.0000 -1.0000
vn -1.0000 -0.0000 -0.0000
vn -0.0000 -1.0000 -0.0000
vn 1.0000 -0.0000 -0.0000
vn -0.0000 1.0000 -0.0000
s 0
usemtl mat_structure
f 266//193 268//193 265//193
f 272//194 270//194 269//194
f 269//195 266//195 265//195
f 270//196 267//196 266//196
f 271//197 268//197 267//197
f 272//198 265//198 268//198
f 266//193 267//193 268//193
f 272//194 271//194 270//194
f 269//195 270//195 266//195
f 270//196 271//196 267//196
f 271//197 272//197 268//197
f 272//198 269//198 265//198
o sec_stairs_step.106
v 17.199999 0.408824 0.975882
v 17.199999 0.708824 0.975882
v 15.999998 0.708824 0.975882
v 15.999998 0.408824 0.975882
v 17.199999 0.408824 1.035882
v 17.199999 0.708824 1.035882
v 15.999998 0.708824 1.035882
v 15.999998 0.408824 1.035882
vn -0.0000 -0.0000 1.0000
vn -0.0000 -0.0000 -1.0000
vn -1.0000 -0.0000 -0.0000
vn -0.0000 -1.0000 -0.0000
vn 1.0000 -0.0000 -0.0000
vn -0.0000 1.0000 -0.0000
s 0
usemtl mat_structure
f 274//199 276//199 273//199
f 280//200 278//200 277//200
f 277//201 274//201 273//201
f 278//202 275//202 274//202
f 279//203 276//203 275//203
f 280//204 273//204 276//204
f 274//199 275//199 276//199
f 280//200 279//200 278//200
f 277//201 278//201 274//201
f 278//202 279//202 275//202
f 279//203 280//203 276//203
f 280//204 277//204 273//204
o sec_stairs_step.107
v 17.199999 0.644118 1.199412
v 17.199999 0.944118 1.199412
v 15.999998 0.944118 1.199412
v 15.999998 0.644118 1.199412
v 17.199999 0.644118 1.259412
v 17.199999 0.944118 1.259412
v 15.999998 0.944118 1.259412
v 15.999998 0.644118 1.259412
vn -0.0000 -0.0000 1.0000
vn -0.0000 -0.0000 -1.0000
vn -1.0000 -0.0000 -0.0000
vn -0.0000 -1.0000 -0.0000
vn 1.0000 -0.0000 -0.0000
vn -0.0000 1.0000 -0.0000
s 0
usemtl mat_structure
f 282//205 284//205 281//205
f 288//206 286//206 285//206
f 285//207 282//207 281//207
f 286//208 283//208 282//208
f 287//209 284//209 283//209
f 288//210 281//210 284//210
f 282//205 283//205 284//205
f 288//206 287//206 286//206
f 285//207 286//207 282//207
f 286//208 287//208 283//208
f 287//209 288//209 284//209
f 288//210 285//210 281//210
o sec_stairs_step.108
v 17.199999 0.879412 1.422941
v 17.199999 1.179412 1.422941
v 15.999998 1.179412 1.422941
v 15.999998 0.879412 1.422941
v 17.199999 0.879412 1.482941
v 17.199999 1.179412 1.482941
v 15.999998 1.179412 1.482941
v 15.999998 0.879412 1.482941
vn -0.0000 -0.0000 1.0000
vn -0.0000 -0.0000 -1.0000
vn -1.0000 -0.0000 -0.0000
vn -0.0000 -1.0000 -0.0000
vn 1.0000 -0.0000 -0.0000
vn -0.0000 1.0000 -0.0000
s 0
usemtl mat_structure
f 290//211 292//211 289//211
f 296//212 294//212 293//212
f 293//213 290//213 289//213
f 294//214 291//214 290//214
f 295//215 292//215 291//215
f 296//216 289//216 292//216
f 290//211 291//211 292//211
f 296//212 295//212 294//212
f 293//213 294//213 290//213
f 294//214 295//214 291//214
f 295//215 296//215 292//215
f 296//216 293//216 289//216
o sec_stairs_step.109
v 17.199999 1.114706 1.646471
v 17.199999 1.414706 1.646471
v 15.999998 1.414706 1.646471
v 15.999998 1.114706 1.646471
v 17.199999 1.114706 1.706471
v 17.199999 1.414706 1.706471
v 15.999998 1.414706 1.706471
v 15.999998 1.114706 1.706471
vn -0.0000 -0.0000 1.0000
vn -0.0000 -0.0000 -1.0000
vn -1.0000 -0.0000 -0.0000
vn -0.0000 -1.0000 -0.0000
vn 1.0000 -0.0000 -0.0000
vn -0.0000 1.0000 -0.0000
s 0
usemtl mat_structure
f 298//217 300//217 297//217
f 304//218 302//218 301//218
f 301//219 298//219 297//219
f 302//220 299//220 298//220
f 303//221 300//221 299//221
f 304//222 297//222 300//222
f 298//217 299//217 300//217
f 304//218 303//218 302//218
f 301//219 302//219 298//219
f 302//220 303//220 299//220
f 303//221 304//221 300//221
f 304//222 301//222 297//222
o sec_stairs_step.110
v 17.199999 1.350000 1.870000
v 17.199999 1.650000 1.870000
v 15.999998 1.650000 1.870000
v 15.999998 1.350000 1.870000
v 17.199999 1.350000 1.930000
v 17.199999 1.650000 1.930000
v 15.999998 1.650000 1.930000
v 15.999998 1.350000 1.930000
vn -0.0000 -0.0000 1.0000
vn -0.0000 -0.0000 -1.0000
vn -1.0000 -0.0000 -0.0000
vn -0.0000 -1.0000 -0.0000
vn 1.0000 -0.0000 -0.0000
vn -0.0000 1.0000 -0.0000
s 0
usemtl mat_structure
f 306//223 308//223 305//223
f 312//224 310//224 309//224
f 309//225 306//225 305//225
f 310//226 307//226 306//226
f 311//227 308//227 307//227
f 312//228 305//228 308//228
f 306//223 307//223 308//223
f 312//224 311//224 310//224
f 309//225 310//225 306//225
f 310//226 311//226 307//226
f 311//227 312//227 308//227
f 312//228 309//228 305//228
o sec_stairs_step.111
v 17.199999 1.585294 2.093529
v 17.199999 1.885294 2.093529
v 15.999998 1.885294 2.093529
v 15.999998 1.585294 2.093529
v 17.199999 1.585294 2.153529
v 17.199999 1.885294 2.153529
v 15.999998 1.885294 2.153529
v 15.999998 1.585294 2.153529
vn -0.0000 -0.0000 1.0000
vn -0.0000 -0.0000 -1.0000
vn -1.0000 -0.0000 -0.0000
vn -0.0000 -1.0000 -0.0000
vn 1.0000 -0.0000 -0.0000
vn -0.0000 1.0000 -0.0000
s 0
usemtl mat_structure
f 314//229 316//229 313//229
f 320//230 318//230 317//230
f 317//231 314//231 313//231
f 318//232 315//232 314//232
f 319//233 316//233 315//233
f 320//234 313//234 316//234
f 314//229 315//229 316//229
f 320//230 319//230 318//230
f 317//231 318//231 314//231
f 318//232 319//232 315//232
f 319//233 320//233 316//233
f 320//234 317//234 313//234
o sec_stairs_step.112
v 17.199999 1.820588 2.317059
v 17.199999 2.120588 2.317059
v 15.999998 2.120588 2.317059
v 15.999998 1.820588 2.317059
v 17.199999 1.820588 2.377059
v 17.199999 2.120588 2.377059
v 15.999998 2.120588 2.377059
v 15.999998 1.820588 2.377059
vn -0.0000 -0.0000 1.0000
vn -0.0000 -0.0000 -1.0000
vn -1.0000 -0.0000 -0.0000
vn -0.0000 -1.0000 -0.0000
vn 1.0000 -0.0000 -0.0000
vn -0.0000 1.0000 -0.0000
s 0
usemtl mat_structure
f 322//235 324//235 321//235
f 328//236 326//236 325//236
f 325//237 322//237 321//237
f 326//238 323//238 322//238
f 327//239 324//239 323//239
f 328//240 321//240 324//240
f 322//235 323//235 324//235
f 328//236 327//236 326//236
f 325//237 326//237 322//237
f 326//238 327//238 323//238
f 327//239 328//239 324//239
f 328//240 325//240 321//240
o sec_stairs_step.113
v 17.199999 2.055882 2.540588
v 17.199999 2.355882 2.540588
v 15.999998 2.355882 2.540588
v 15.999998 2.055882 2.540588
v 17.199999 2.055882 2.600588
v 17.199999 2.355882 2.600588
v 15.999998 2.355882 2.600588
v 15.999998 2.055882 2.600588
vn -0.0000 -0.0000 1.0000
vn -0.0000 -0.0000 -1.0000
vn -1.0000 -0.0000 -0.0000
vn -0.0000 -1.0000 -0.0000
vn 1.0000 -0.0000 -0.0000
vn -0.0000 1.0000 -0.0000
s 0
usemtl mat_structure
f 330//241 332//241 329//241
f 336//242 334//242 333//242
f 333//243 330//243 329//243
f 334//244 331//244 330//244
f 335//245 332//245 331//245
f 336//246 329//246 332//246
f 330//241 331//241 332//241
f 336//242 335//242 334//242
f 333//243 334//243 330//243
f 334//244 335//244 331//244
f 335//245 336//245 332//245
f 336//246 333//246 329//246
o sec_stairs_step.114
v 17.199999 2.291176 2.764117
v 17.199999 2.591177 2.764117
v 15.999998 2.591177 2.764117
v 15.999998 2.291176 2.764117
v 17.199999 2.291176 2.824117
v 17.199999 2.591177 2.824117
v 15.999998 2.591177 2.824117
v 15.999998 2.291176 2.824117
vn -0.0000 -0.0000 1.0000
vn -0.0000 -0.0000 -1.0000
vn -1.0000 -0.0000 -0.0000
vn -0.0000 -1.0000 -0.0000
vn 1.0000 -0.0000 -0.0000
vn -0.0000 1.0000 -0.0000
s 0
usemtl mat_structure
f 338//247 340//247 337//247
f 344//248 342//248 341//248
f 341//249 338//249 337//249
f 342//250 339//250 338//250
f 343//251 340//251 339//251
f 344//252 337//252 340//252
f 338//247 339//247 340//247
f 344//248 343//248 342//248
f 341//249 342//249 338//249
f 342//250 343//250 339//250
f 343//251 344//251 340//251
f 344//252 341//252 337//252
o sec_stairs_step.115
v 17.199999 2.526471 2.987647
v 17.199999 2.826471 2.987647
v 15.999998 2.826470 2.987647
v 15.999998 2.526470 2.987647
v 17.199999 2.526471 3.047647
v 17.199999 2.826471 3.047647
v 15.999998 2.826470 3.047647
v 15.999998 2.526470 3.047647
vn -0.0000 -0.0000 1.0000
vn -0.0000 -0.0000 -1.0000
vn -1.0000 -0.0000 -0.0000
vn -0.0000 -1.0000 -0.0000
vn 1.0000 -0.0000 -0.0000
vn -0.0000 1.0000 -0.0000
s 0
usemtl mat_structure
f 346//253 348//253 345//253
f 352//254 350//254 349//254
f 349//255 346//255 345//255
f 350//256 347//256 346//256
f 351//257 348//257 347//257
f 352//258 345//258 348//258
f 346//253 347//253 348//253
f 352//254 351//254 350//254
f 349//255 350//255 346//255
f 350//256 351//256 347//256
f 351//257 352//257 348//257
f 352//258 349//258 345//258
o sec_stairs_step.116
v 17.199999 2.761765 3.211176
v 17.199999 3.061765 3.211176
v 15.999998 3.061765 3.211176
v 15.999998 2.761765 3.211176
v 17.199999 2.761765 3.271176
v 17.199999 3.061765 3.271176
v 15.999998 3.061765 3.271176
v 15.999998 2.761765 3.271176
vn -0.0000 -0.0000 1.0000
vn -0.0000 -0.0000 -1.0000
vn -1.0000 -0.0000 -0.0000
vn -0.0000 -1.0000 -0.0000
vn 1.0000 -0.0000 -0.0000
vn -0.0000 1.0000 -0.0000
s 0
usemtl mat_structure
f 354//259 356//259 353//259
f 360//260 358//260 357//260
f 357//261 354//261 353//261
f 358//262 355//262 354//262
f 359//263 356//263 355//263
f 360//264 353//264 356//264
f 354//259 355//259 356//259
f 360//260 359//260 358//260
f 357//261 358//261 354//261
f 358//262 359//262 355//262
f 359//263 360//263 356//263
f 360//264 357//264 353//264
o sec_stairs_step.117
v 17.199999 2.997059 3.434706
v 17.199999 3.297059 3.434706
v 15.999998 3.297059 3.434706
v 15.999998 2.997059 3.434706
v 17.199999 2.997059 3.494706
v 17.199999 3.297059 3.494706
v 15.999998 3.297059 3.494706
v 15.999998 2.997059 3.494706
vn -0.0000 -0.0000 1.0000
vn -0.0000 -0.0000 -1.0000
vn -1.0000 -0.0000 -0.0000
vn -0.0000 -1.0000 -0.0000
vn 1.0000 -0.0000 -0.0000
vn -0.0000 1.0000 -0.0000
s 0
usemtl mat_structure
f 362//265 364//265 361//265
f 368//266 366//266 365//266
f 365//267 362//267 361//267
f 366//268 363//268 362//268
f 367//269 364//269 363//269
f 368//270 361//270 364//270
f 362//265 363//265 364//265
f 368//266 367//266 366//266
f 365//267 366//267 362//267
f 366//268 367//268 363//268
f 367//269 368//269 364//269
f 368//270 365//270 361//270
o sec_stairs_step.118
v 17.199999 3.232353 3.658235
v 17.199999 3.532353 3.658235
v 15.999998 3.532353 3.658235
v 15.999998 3.232353 3.658235
v 17.199999 3.232353 3.718235
v 17.199999 3.532353 3.718235
v 15.999998 3.532353 3.718235
v 15.999998 3.232353 3.718235
vn -0.0000 -0.0000 1.0000
vn -0.0000 -0.0000 -1.0000
vn -1.0000 -0.0000 -0.0000
vn -0.0000 -1.0000 -0.0000
vn 1.0000 -0.0000 -0.0000
vn -0.0000 1.0000 -0.0000
s 0
usemtl mat_structure
f 370//271 372//271 369//271
f 376//272 374//272 373//272
f 373//273 370//273 369//273
f 374//274 371//274 370//274
f 375//275 372//275 371//275
f 376//276 369//276 372//276
f 370//271 371//271 372//271
f 376//272 375//272 374//272
f 373//273 374//273 370//273
f 374//274 375//274 371//274
f 375//275 376//275 372//275
f 376//276 373//276 369//276
o sec_stairs_stringer.012
v 16.030001 -0.396688 -0.258750
v 16.030001 3.603312 3.541250
v 15.970000 3.603312 3.541250
v 15.970000 -0.396688 -0.258750
v 16.030001 -0.603312 -0.041250
v 16.030001 3.396688 3.758750
v 15.970000 3.396688 3.758750
v 15.970000 -0.603312 -0.041250
vn -0.0000 -0.6887 0.7250
vn -0.0000 0.6887 -0.7250
vn -1.0000 -0.0000 -0.0000
vn -0.0000 -0.7250 -0.6887
vn 1.0000 -0.0000 -0.0000
vn -0.0000 0.7250 0.6887
s 0
usemtl mat_structure
f 378//277 380//277 377//277
f 384//278 382//278 381//278
f 381//279 378//279 377//279
f 382//280 379//280 378//280
f 383//281 380//281 379//281
f 384//282 377//282 380//282
f 378//277 379//277 380//277
f 384//278 383//278 382//278
f 381//279 382//279 378//279
f 382//280 383//280 379//280
f 383//281 384//281 380//281
f 384//282 381//282 377//282
o sec_stairs_handrail.012
v 16.025000 -0.479338 0.928250
v 16.025000 3.520663 4.728250
v 15.975000 3.520663 4.728250
v 15.975000 -0.479338 0.928250
v 16.025000 -0.520663 0.971750
v 16.025000 3.479338 4.771750
v 15.975000 3.479338 4.771750
v 15.975000 -0.520663 0.971750
vn -0.0000 -0.6887 0.7250
vn -0.0000 0.6887 -0.7250
vn -1.0000 -0.0000 -0.0000
vn -0.0000 -0.7250 -0.6887
vn 1.0000 -0.0000 -0.0000
vn -0.0000 0.7250 0.6887
s 0
usemtl mat_yellow
f 386//283 388//283 385//283
f 392//284 390//284 389//284
f 389//285 386//285 385//285
f 390//286 387//286 386//286
f 391//287 388//287 387//287
f 392//288 385//288 388//288
f 386//283 387//283 388//283
f 392//284 391//284 390//284
f 389//285 390//285 386//285
f 390//286 391//286 387//286
f 391//287 392//287 388//287
f 392//288 389//288 385//288
o sec_stairs_stringer.013
v 17.229998 -0.396688 -0.258750
v 17.229998 3.603312 3.541250
v 17.169996 3.603312 3.541250
v 17.169996 -0.396688 -0.258750
v 17.229998 -0.603312 -0.041250
v 17.229998 3.396688 3.758750
v 17.169996 3.396688 3.758750
v 17.169996 -0.603312 -0.041250
vn -0.0000 -0.6887 0.7250
vn -0.0000 0.6887 -0.7250
vn -1.0000 -0.0000 -0.0000
vn -0.0000 -0.7250 -0.6887
vn 1.0000 -0.0000 -0.0000
vn -0.0000 0.7250 0.6887
s 0
usemtl mat_structure
f 394//289 396//289 393//289
f 400//290 398//290 397//290
f 397//291 394//291 393//291
f 398//292 395//292 394//292
f 399//293 396//293 395//293
f 400//294 393//294 396//294
f 394//289 395//289 396//289
f 400//290 399//290 398//290
f 397//291 398//291 394//291
f 398//292 399//292 395//292
f 399//293 400//293 396//293
f 400//294 397//294 393//294
o sec_stairs_handrail.013
v 17.224997 -0.479338 0.928250
v 17.224997 3.520663 4.728250
v 17.174997 3.520663 4.728250
v 17.174997 -0.479338 0.928250
v 17.224997 -0.520663 0.971750
v 17.224997 3.479338 4.771750
v 17.174997 3.479338 4.771750
v 17.174997 -0.520663 0.971750
vn -0.0000 -0.6887 0.7250
vn -0.0000 0.6887 -0.7250
vn -1.0000 -0.0000 -0.0000
vn -0.0000 -0.7250 -0.6887
vn 1.0000 -0.0000 -0.0000
vn -0.0000 0.7250 0.6887
s 0
usemtl mat_yellow
f 402//295 404//295 401//295
f 408//296 406//296 405//296
f 405//297 402//297 401//297
f 406//298 403//298 402//298
f 407//299 404//299 403//299
f 408//300 401//300 404//300
f 402//295 403//295 404//295
f 408//296 407//296 406//296
f 405//297 406//297 402//297
f 406//298 407//298 403//298
f 407//299 408//299 404//299
f 408//300 405//300 401//300
o sec_discharge_belt.006
v 13.268802 5.732980 2.150476
v 15.268801 -2.667020 0.950476
v 16.728010 -2.319589 0.950476
v 14.728011 6.080411 2.150476
v 13.271990 5.719589 2.249524
v 15.271989 -2.680411 1.049524
v 16.731199 -2.332979 1.049524
v 14.731199 6.067020 2.249524
vn 0.0319 -0.1339 0.9905
vn -0.0319 0.1339 -0.9905
vn 0.9728 0.2316 -0.0000
vn -0.2294 0.9635 0.1376
vn -0.9728 -0.2316 -0.0000
vn 0.2294 -0.9635 -0.1376
s 0
usemtl mat_belt
f 410//301 412//301 409//301
f 416//302 414//302 413//302
f 413//303 410//303 409//303
f 414//304 411//304 410//304
f 415//305 412//305 411//305
f 416//306 409//306 412//306
f 410//301 411//301 412//301
f 416//302 415//302 414//302
f 413//303 414//303 410//303
f 414//304 415//304 411//304
f 415//305 416//305 412//305
f 416//306 413//306 409//306
o sec_discharge_frame.006
v 13.088117 5.714722 1.677142
v 15.088117 -2.685278 0.477142
v 16.897535 -2.254464 0.477142
v 14.897536 6.145535 1.677142
v 13.102464 5.654464 2.122858
v 15.102464 -2.745536 0.922858
v 16.911882 -2.314721 0.922858
v 14.911883 6.085278 2.122858
vn 0.0319 -0.1339 0.9905
vn -0.0319 0.1339 -0.9905
vn 0.9728 0.2316 -0.0000
vn -0.2294 0.9635 0.1376
vn -0.9728 -0.2316 -0.0000
vn 0.2294 -0.9635 -0.1376
s 0
usemtl mat_steel_blue
f 418//307 420//307 417//307
f 424//308 422//308 421//308
f 421//309 418//309 417//309
f 422//310 419//310 418//310
f 423//311 420//311 419//311
f 424//312 417//312 420//312
f 418//307 419//307 420//307
f 424//308 423//308 422//308
f 421//309 422//309 418//309
f 422//310 423//310 419//310
f 423//311 424//311 420//311
f 424//312 421//312 417//312
o sec_discharge_side.012
v 14.810464 6.122682 2.151999
v 16.810463 -2.277318 0.951999
v 16.907743 -2.254156 0.951999
v 14.907744 6.145844 2.151999
v 14.823854 6.066441 2.568001
v 16.823854 -2.333559 1.368001
v 16.921135 -2.310397 1.368001
v 14.921135 6.089602 2.568001
vn 0.0319 -0.1339 0.9905
vn -0.0319 0.1339 -0.9905
vn 0.9728 0.2316 -0.0000
vn -0.2294 0.9635 0.1376
vn -0.9728 -0.2316 -0.0000
vn 0.2294 -0.9635 -0.1376
s 0
usemtl mat_steel_blue
f 426//313 428//313 425//313
f 432//314 430//314 429//314
f 429//315 426//315 425//315
f 430//316 427//316 426//316
f 431//317 428//317 427//317
f 432//318 425//318 428//318
f 426//313 427//313 428//313
f 432//314 431//314 430//314
f 429//315 430//315 426//315
f 430//316 431//316 427//316
f 431//317 432//317 428//317
f 432//318 429//318 425//318
o sec_discharge_side.013
v 13.078866 5.710397 2.151999
v 15.078865 -2.689602 0.951999
v 15.176146 -2.666440 0.951999
v 13.176147 5.733559 2.151999
v 13.092257 5.654156 2.568001
v 15.092256 -2.745843 1.368001
v 15.189536 -2.722682 1.368001
v 13.189537 5.677318 2.568001
vn 0.0319 -0.1339 0.9905
vn -0.0319 0.1339 -0.9905
vn 0.9728 0.2316 -0.0000
vn -0.2294 0.9635 0.1376
vn -0.9728 -0.2316 -0.0000
vn 0.2294 -0.9635 -0.1376
s 0
usemtl mat_steel_blue
f 434//319 436//319 433//319
f 440//320 438//320 437//320
f 437//321 434//321 433//321
f 438//322 435//322 434//322
f 439//323 436//323 435//323
f 440//324 433//324 436//324
f 434//319 435//319 436//319
f 440//320 439//320 438//320
f 437//321 438//321 434//321
f 438//322 439//322 435//322
f 439//323 440//323 436//323
f 440//324 437//324 433//324
o sec_discharge_drum.012
v 13.162963 5.961630 1.958113
v 13.266200 5.528035 1.896171
v 14.822690 5.898628 1.896171
v 14.719453 6.332223 1.958113
v 13.177310 5.901372 2.403830
v 13.280547 5.467777 2.341887
v 14.837037 5.838370 2.341887
v 14.733800 6.271966 2.403830
vn 0.0319 -0.1339 0.9905
vn -0.0319 0.1339 -0.9905
vn 0.9728 0.2316 -0.0000
vn -0.2294 0.9635 0.1376
vn -0.9728 -0.2316 -0.0000
vn 0.2294 -0.9635 -0.1376
s 0
usemtl mat_dark_metal
f 442//325 444//325 441//325
f 448//326 446//326 445//326
f 445//327 442//327 441//327
f 446//328 443//328 442//328
f 447//329 444//329 443//329
f 448//330 441//330 444//330
f 442//325 443//325 444//325
f 448//326 447//326 446//326
f 445//327 446//327 442//327
f 446//328 447//328 443//328
f 447//329 448//329 444//329
f 448//330 445//330 441//330
o sec_discharge_drum.013
v 15.162963 -2.438370 0.758113
v 15.266200 -2.871965 0.696171
v 16.822689 -2.501373 0.696171
v 16.719454 -2.067777 0.758113
v 15.177310 -2.498627 1.203829
v 15.280547 -2.932223 1.141887
v 16.837036 -2.561630 1.141887
v 16.733801 -2.128035 1.203829
vn 0.0319 -0.1339 0.9905
vn -0.0319 0.1339 -0.9905
vn 0.9728 0.2316 -0.0000
vn -0.2294 0.9635 0.1376
vn -0.9728 -0.2316 -0.0000
vn 0.2294 -0.9635 -0.1376
s 0
usemtl mat_dark_metal
f 450//331 452//331 449//331
f 456//332 454//332 453//332
f 453//333 450//333 449//333
f 454//334 451//334 450//334
f 455//335 452//335 451//335
f 456//336 449//336 452//336
f 450//331 451//331 452//331
f 456//332 455//332 454//332
f 453//333 454//333 450//333
f 454//334 455//334 451//334
f 455//335 456//335 452//335
f 456//336 453//336 449//336
o sec_discharge_leg.024
v 15.159607 3.903716 0.000000
v 15.299606 3.903716 0.000000
v 15.299606 4.043715 0.000000
v 15.159607 4.043715 0.000000
v 15.159607 3.903716 1.350000
v 15.299606 3.903716 1.350000
v 15.299606 4.043715 1.350000
v 15.159607 4.043715 1.350000
vn -0.0000 -0.0000 1.0000
vn -0.0000 -0.0000 -1.0000
vn -0.0000 1.0000 -0.0000
vn -1.0000 -0.0000 -0.0000
vn -0.0000 -1.0000 -0.0000
vn 1.0000 -0.0000 -0.0000
s 0
usemtl mat_steel_blue
f 458//337 460//337 457//337
f 464//338 462//338 461//338
f 461//339 458//339 457//339
f 462//340 459//340 458//340
f 463//341 460//341 459//341
f 464//342 457//342 460//342
f 458//337 459//337 460//337
f 464//338 463//338 462//338
f 461//339 462//339 458//339
f 462//340 463//340 459//340
f 463//341 464//341 460//341
f 464//342 461//342 457//342
o sec_discharge_leg.025
v 13.700394 3.556285 0.000000
v 13.840393 3.556285 0.000000
v 13.840393 3.696285 0.000000
v 13.700394 3.696285 0.000000
v 13.700394 3.556285 1.350000
v 13.840393 3.556285 1.350000
v 13.840393 3.696285 1.350000
v 13.700394 3.696285 1.350000
vn -0.0000 -0.0000 1.0000
vn -0.0000 -0.0000 -1.0000
vn -0.0000 1.0000 -0.0000
vn -1.0000 -0.0000 -0.0000
vn -0.0000 -1.0000 -0.0000
vn 1.0000 -0.0000 -0.0000
s 0
usemtl mat_steel_blue
f 466//343 468//343 465//343
f 472//344 470//344 469//344
f 469//345 466//345 465//345
f 470//346 467//346 466//346
f 471//347 468//347 467//347
f 472//348 465//348 468//348
f 466//343 467//343 468//343
f 472//344 471//344 470//344
f 469//345 470//345 466//345
f 470//346 471//346 467//346
f 471//347 472//347 468//347
f 472//348 469//348 465//348
o sec_discharge_leg.026
v 16.159607 -0.296284 0.000000
v 16.299606 -0.296284 0.000000
v 16.299606 -0.156284 0.000000
v 16.159607 -0.156284 0.000000
v 16.159607 -0.296284 0.750000
v 16.299606 -0.296284 0.750000
v 16.299606 -0.156284 0.750000
v 16.159607 -0.156284 0.750000
vn -0.0000 -0.0000 1.0000
vn -0.0000 -0.0000 -1.0000
vn -0.0000 1.0000 -0.0000
vn -1.0000 -0.0000 -0.0000
vn -0.0000 -1.0000 -0.0000
vn 1.0000 -0.0000 -0.0000
s 0
usemtl mat_steel_blue
f 474//349 476//349 473//349
f 480//350 478//350 477//350
f 477//351 474//351 473//351
f 478//352 475//352 474//352
f 479//353 476//353 475//353
f 480//354 473//354 476//354
f 474//349 475//349 476//349
f 480//350 479//350 478//350
f 477//351 478//351 474//351
f 478//352 479//352 475//352
f 479//353 480//353 476//353
f 480//354 477//354 473//354
o sec_discharge_leg.027
v 14.700394 -0.643715 0.000000
v 14.840393 -0.643715 0.000000
v 14.840393 -0.503715 0.000000
v 14.700394 -0.503715 0.000000
v 14.700394 -0.643715 0.750000
v 14.840393 -0.643715 0.750000
v 14.840393 -0.503715 0.750000
v 14.700394 -0.503715 0.750000
vn -0.0000 -0.0000 1.0000
vn -0.0000 -0.0000 -1.0000
vn -0.0000 1.0000 -0.0000
vn -1.0000 -0.0000 -0.0000
vn -0.0000 -1.0000 -0.0000
vn 1.0000 -0.0000 -0.0000
s 0
usemtl mat_steel_blue
f 482//355 484//355 481//355
f 488//356 486//356 485//356
f 485//357 482//357 481//357
f 486//358 483//358 482//358
f 487//359 484//359 483//359
f 488//360 481//360 484//360
f 482//355 483//355 484//355
f 488//356 487//356 486//356
f 485//357 486//357 482//357
f 486//358 487//358 483//358
f 487//359 488//359 484//359
f 488//360 485//360 481//360
