# Blender 5.1.1
# www.blender.org
mtllib baler.mtl
o baler_infeed_belt.006
v 16.932447 -3.062153 1.152827
v 19.232447 6.337847 4.552827
v 17.775427 6.694351 4.552827
v 15.475429 -2.705649 1.152827
v 16.924570 -3.094351 1.247173
v 19.224569 6.305649 4.647173
v 17.767550 6.662153 4.647173
v 15.467550 -2.737847 1.247173
vn -0.0788 -0.3220 0.9435
vn 0.0788 0.3220 -0.9435
vn -0.9713 0.2377 -0.0000
vn -0.2242 -0.9164 -0.3315
vn 0.9713 -0.2377 -0.0000
vn 0.2242 0.9164 0.3315
s 0
usemtl mat_belt
f 2//1 4//1 1//1
f 8//2 6//2 5//2
f 5//3 2//3 1//3
f 6//4 3//4 2//4
f 7//5 4//5 3//5
f 8//6 1//6 4//6
f 2//1 3//1 4//1
f 8//2 7//2 6//2
f 5//3 6//3 2//3
f 6//4 7//4 3//4
f 7//5 8//5 4//5
f 8//6 5//6 1//6
o baler_infeed_frame.006
v 17.121077 -3.048588 0.687721
v 19.421076 6.351412 4.087721
v 17.614372 6.793477 4.087721
v 15.314373 -2.606522 0.687721
v 17.085625 -3.193477 1.112280
v 19.385624 6.206522 4.512280
v 17.578920 6.648587 4.512280
v 15.278921 -2.751412 1.112280
vn -0.0788 -0.3220 0.9435
vn 0.0788 0.3220 -0.9435
vn -0.9713 0.2377 -0.0000
vn -0.2242 -0.9164 -0.3315
vn 0.9713 -0.2377 -0.0000
vn 0.2242 0.9164 0.3315
s 0
usemtl mat_steel_blue
f 10//7 12//7 9//7
f 16//8 14//8 13//8
f 13//9 10//9 9//9
f 14//10 11//10 10//10
f 15//11 12//11 11//11
f 16//12 9//12 12//12
f 10//7 11//7 12//7
f 16//8 15//8 14//8
f 13//9 14//9 10//9
f 14//10 15//10 11//10
f 15//11 16//11 12//11
f 16//12 13//12 9//12
o baler_infeed_side.012
v 15.400616 -2.632742 1.161873
v 17.700615 6.767258 4.561872
v 17.603481 6.791024 4.561872
v 15.303481 -2.608975 1.161873
v 15.367528 -2.767972 1.558128
v 17.667526 6.632028 4.958127
v 17.570393 6.655794 4.958127
v 15.270393 -2.744205 1.558128
vn -0.0788 -0.3220 0.9435
vn 0.0788 0.3220 -0.9435
vn -0.9713 0.2377 -0.0000
vn -0.2242 -0.9164 -0.3315
vn 0.9713 -0.2377 -0.0000
vn 0.2242 0.9164 0.3315
s 0
usemtl mat_steel_blue
f 18//13 20//13 17//13
f 24//14 22//14 21//14
f 21//15 18//15 17//15
f 22//16 19//16 18//16
f 23//17 20//17 19//17
f 24//18 17//18 20//18
f 18//13 19//13 20//13
f 24//14 23//14 22//14
f 21//15 22//15 18//15
f 22//16 23//16 19//16
f 23//17 24//17 20//17
f 24//18 21//18 17//18
o baler_infeed_side.013
v 17.129612 -3.055794 1.161873
v 19.429611 6.344205 4.561872
v 19.332478 6.367972 4.561872
v 17.032478 -3.032028 1.161873
v 17.096523 -3.191024 1.558128
v 19.396523 6.208975 4.958127
v 19.299389 6.232742 4.958127
v 16.999390 -3.167258 1.558128
vn -0.0788 -0.3220 0.9435
vn 0.0788 0.3220 -0.9435
vn -0.9713 0.2377 -0.0000
vn -0.2242 -0.9164 -0.3315
vn 0.9713 -0.2377 -0.0000
vn 0.2242 0.9164 0.3315
s 0
usemtl mat_steel_blue
f 26//19 28//19 25//19
f 32//20 30//20 29//20
f 29//21 26//21 25//21
f 30//22 27//22 26//22
f 31//23 28//23 27//23
f 32//24 25//24 28//24
f 26//19 27//19 28//19
f 32//20 31//20 30//20
f 29//21 30//21 26//21
f 30//22 31//22 27//22
f 31//23 32//23 28//23
f 32//24 29//24 25//24
o baler_infeed_drum.012
v 16.944347 -3.223888 0.863139
v 17.045252 -2.811494 1.012303
v 15.491098 -2.431223 1.012303
v 15.390194 -2.843616 0.863139
v 16.908895 -3.368777 1.287698
v 17.009800 -2.956384 1.436861
v 15.455647 -2.576112 1.436861
v 15.354742 -2.988506 1.287698
vn -0.0788 -0.3220 0.9435
vn 0.0788 0.3220 -0.9435
vn -0.9713 0.2377 -0.0000
vn -0.2242 -0.9164 -0.3315
vn 0.9713 -0.2377 -0.0000
vn 0.2242 0.9164 0.3315
s 0
usemtl mat_dark_metal
f 34//25 36//25 33//25
f 40//26 38//26 37//26
f 37//27 34//27 33//27
f 38//28 35//28 34//28
f 39//29 36//29 35//29
f 40//30 33//30 36//30
f 34//25 35//25 36//25
f 40//26 39//26 38//26
f 37//27 38//27 34//27
f 38//28 39//28 35//28
f 39//29 40//29 36//29
f 40//30 37//30 33//30
o baler_infeed_drum.013
v 19.244350 6.176112 4.263138
v 19.345255 6.588506 4.412302
v 17.791101 6.968777 4.412302
v 17.690197 6.556384 4.263138
v 19.208899 6.031223 4.687697
v 19.309803 6.443616 4.836861
v 17.755650 6.823888 4.836861
v 17.654745 6.411494 4.687697
vn -0.0788 -0.3220 0.9435
vn 0.0788 0.3220 -0.9435
vn -0.9713 0.2377 -0.0000
vn -0.2242 -0.9164 -0.3315
vn 0.9713 -0.2377 -0.0000
vn 0.2242 0.9164 0.3315
s 0
usemtl mat_dark_metal
f 42//31 44//31 41//31
f 48//32 46//32 45//32
f 45//33 42//33 41//33
f 46//34 43//34 42//34
f 47//35 44//35 43//35
f 48//36 41//36 44//36
f 42//31 43//31 44//31
f 48//32 47//32 46//32
f 45//33 46//33 42//33
f 46//34 47//34 43//34
f 47//35 48//35 44//35
f 48//36 45//36 41//36
o baler_infeed_leg.036
v 15.784828 -1.225081 0.000000
v 15.924828 -1.225081 0.000000
v 15.924828 -1.085081 0.000000
v 15.784828 -1.085081 0.000000
v 15.784828 -1.225081 1.216667
v 15.924828 -1.225081 1.216667
v 15.924828 -1.085081 1.216667
v 15.784828 -1.085081 1.216667
vn -0.0000 -0.0000 1.0000
vn -0.0000 -0.0000 -1.0000
vn -0.0000 1.0000 -0.0000
vn -1.0000 -0.0000 -0.0000
vn -0.0000 -1.0000 -0.0000
vn 1.0000 -0.0000 -0.0000
s 0
usemtl mat_steel_blue
f 50//37 52//37 49//37
f 56//38 54//38 53//38
f 53//39 50//39 49//39
f 54//40 51//40 50//40
f 55//41 52//41 51//41
f 56//42 49//42 52//42
f 50//37 51//37 52//37
f 56//38 55//38 54//38
f 53//39 54//39 50//39
f 54//40 55//40 51//40
f 55//41 56//41 52//41
f 56//42 53//42 49//42
o baler_infeed_leg.037
v 17.241844 -1.581586 0.000000
v 17.381844 -1.581586 0.000000
v 17.381844 -1.441586 0.000000
v 17.241844 -1.441586 0.000000
v 17.241844 -1.581586 1.216667
v 17.381844 -1.581586 1.216667
v 17.381844 -1.441586 1.216667
v 17.241844 -1.441586 1.216667
vn -0.0000 -0.0000 1.0000
vn -0.0000 -0.0000 -1.0000
vn -0.0000 1.0000 -0.0000
vn -1.0000 -0.0000 -0.0000
vn -0.0000 -1.0000 -0.0000
vn 1.0000 -0.0000 -0.0000
s 0
usemtl mat_steel_blue
f 58//43 60//43 57//43
f 64//44 62//44 61//44
f 61//45 58//45 57//45
f 62//46 59//46 58//46
f 63//47 60//47 59//47
f 64//48 57//48 60//48
f 58//43 59//43 60//43
f 64//44 63//44 62//44
f 61//45 62//45 58//45
f 62//46 63//46 59//46
f 63//47 64//47 60//47
f 64//48 61//48 57//48
o baler_infeed_leg.038
v 16.551491 1.908252 0.000000
v 16.691490 1.908252 0.000000
v 16.691490 2.048252 0.000000
v 16.551491 2.048252 0.000000
v 16.551491 1.908252 2.350000
v 16.691490 1.908252 2.350000
v 16.691490 2.048252 2.350000
v 16.551491 2.048252 2.350000
vn -0.0000 -0.0000 1.0000
vn -0.0000 -0.0000 -1.0000
vn -0.0000 1.0000 -0.0000
vn -1.0000 -0.0000 -0.0000
vn -0.0000 -1.0000 -0.0000
vn 1.0000 -0.0000 -0.0000
s 0
usemtl mat_steel_blue
f 66//49 68//49 65//49
f 72//50 70//50 69//50
f 69//51 66//51 65//51
f 70//52 67//52 66//52
f 71//53 68//53 67//53
f 72//54 65//54 68//54
f 66//49 67//49 68//49
f 72//50 71//50 70//50
f 69//51 70//51 66//51
f 70//52 71//52 67//52
f 71//53 72//53 68//53
f 72//54 69//54 65//54
o baler_infeed_leg.039
v 18.008507 1.551747 0.000000
v 18.148506 1.551747 0.000000
v 18.148506 1.691748 0.000000
v 18.008507 1.691748 0.000000
v 18.008507 1.551747 2.350000
v 18.148506 1.551747 2.350000
v 18.148506 1.691748 2.350000
v 18.008507 1.691748 2.350000
vn -0.0000 -0.0000 1.0000
vn -0.0000 -0.0000 -1.0000
vn -0.0000 1.0000 -0.0000
vn -1.0000 -0.0000 -0.0000
vn -0.0000 -1.0000 -0.0000
vn 1.0000 -0.0000 -0.0000
s 0
usemtl mat_steel_blue
f 74//55 76//55 73//55
f 80//56 78//56 77//56
f 77//57 74//57 73//57
f 78//58 75//58 74//58
f 79//59 76//59 75//59
f 80//60 73//60 76//60
f 74//55 75//55 76//55
f 80//56 79//56 78//56
f 77//57 78//57 74//57
f 78//58 79//58 75//58
f 79//59 80//59 76//59
f 80//60 77//60 73//60
o baler_infeed_leg.040
v 17.318153 5.041585 0.000000
v 17.458153 5.041585 0.000000
v 17.458153 5.181585 0.000000
v 17.318153 5.181585 0.000000
v 17.318153 5.041585 3.483333
v 17.458153 5.041585 3.483333
v 17.458153 5.181585 3.483333
v 17.318153 5.181585 3.483333
vn -0.0000 -0.0000 1.0000
vn -0.0000 -0.0000 -1.0000
vn -0.0000 1.0000 -0.0000
vn -1.0000 -0.0000 -0.0000
vn -0.0000 -1.0000 -0.0000
vn 1.0000 -0.0000 -0.0000
s 0
usemtl mat_steel_blue
f 82//61 84//61 81//61
f 88//62 86//62 85//62
f 85//63 82//63 81//63
f 86//64 83//64 82//64
f 87//65 84//65 83//65
f 88//66 81//66 84//66
f 82//61 83//61 84//61
f 88//62 87//62 86//62
f 85//63 86//63 82//63
f 86//64 87//64 83//64
f 87//65 88//65 84//65
f 88//66 85//66 81//66
o baler_infeed_leg.041
v 18.775177 4.685081 0.000000
v 18.915176 4.685081 0.000000
v 18.915176 4.825081 0.000000
v 18.775177 4.825081 0.000000
v 18.775177 4.685081 3.483333
v 18.915176 4.685081 3.483333
v 18.915176 4.825081 3.483333
v 18.775177 4.825081 3.483333
vn -0.0000 -0.0000 1.0000
vn -0.0000 -0.0000 -1.0000
vn -0.0000 1.0000 -0.0000
vn -1.0000 -0.0000 -0.0000
vn -0.0000 -1.0000 -0.0000
vn 1.0000 -0.0000 -0.0000
s 0
usemtl mat_steel_blue
f 90//67 92//67 89//67
f 96//68 94//68 93//68
f 93//69 90//69 89//69
f 94//70 91//70 90//70
f 95//71 92//71 91//71
f 96//72 89//72 92//72
f 90//67 91//67 92//67
f 96//68 95//68 94//68
f 93//69 94//69 90//69
f 94//70 95//70 91//70
f 95//71 96//71 92//71
f 96//72 93//72 89//72
o baler_base.006
v 17.500000 5.800000 0.000000
v 23.500000 5.800000 0.000000
v 23.500000 10.200000 0.000000
v 17.500000 10.200000 0.000000
v 17.500000 5.800000 0.800000
v 23.500000 5.800000 0.800000
v 23.500000 10.200000 0.800000
v 17.500000 10.200000 0.800000
vn -0.0000 -0.0000 1.0000
vn -0.0000 -0.0000 -1.0000
vn -0.0000 1.0000 -0.0000
vn -1.0000 -0.0000 -0.0000
vn -0.0000 -1.0000 -0.0000
vn 1.0000 -0.0000 -0.0000
s 0
usemtl mat_dark_metal
f 98//73 100//73 97//73
f 104//74 102//74 101//74
f 101//75 98//75 97//75
f 102//76 99//76 98//76
f 103//77 100//77 99//77
f 104//78 97//78 100//78
f 98//73 99//73 100//73
f 104//74 103//74 102//74
f 101//75 102//75 98//75
f 102//76 103//76 99//76
f 103//77 104//77 100//77
f 104//78 101//78 97//78
o baler_body.006
v 17.900000 6.200000 0.800000
v 23.100000 6.200000 0.800000
v 23.100000 9.800000 0.800000
v 17.900000 9.800000 0.800000
v 17.900000 6.200000 3.800000
v 23.100000 6.200000 3.800000
v 23.100000 9.800000 3.800000
v 17.900000 9.800000 3.800000
vn -0.0000 -0.0000 1.0000
vn -0.0000 -0.0000 -1.0000
vn -0.0000 1.0000 -0.0000
vn -1.0000 -0.0000 -0.0000
vn -0.0000 -1.0000 -0.0000
vn 1.0000 -0.0000 -0.0000
s 0
usemtl mat_steel_blue
f 106//79 108//79 105//79
f 112//80 110//80 109//80
f 109//81 106//81 105//81
f 110//82 107//82 106//82
f 111//83 108//83 107//83
f 112//84 105//84 108//84
f 106//79 107//79 108//79
f 112//80 111//80 110//80
f 109//81 110//81 106//81
f 110//82 111//82 107//82
f 111//83 112//83 108//83
f 112//84 109//84 105//84
o baler_press_head.006
v 18.400002 6.500000 3.500000
v 21.400002 6.500000 3.500000
v 21.400002 9.500000 3.500000
v 18.400002 9.500000 3.500000
v 18.400002 6.500000 5.100000
v 21.400002 6.500000 5.100000
v 21.400002 9.500000 5.100000
v 18.400002 9.500000 5.100000
vn -0.0000 -0.0000 1.0000
vn -0.0000 -0.0000 -1.0000
vn -0.0000 1.0000 -0.0000
vn -1.0000 -0.0000 -0.0000
vn -0.0000 -1.0000 -0.0000
vn 1.0000 -0.0000 -0.0000
s 0
usemtl mat_steel_lt
f 114//85 116//85 113//85
f 120//86 118//86 117//86
f 117//87 114//87 113//87
f 118//88 115//88 114//88
f 119//89 116//89 115//89
f 120//90 113//90 116//90
f 114//85 115//85 116//85
f 120//86 119//86 118//86
f 117//87 118//87 114//87
f 118//88 119//88 115//88
f 119//89 120//89 116//89
f 120//90 117//90 113//90
o baler_ram.006
v 21.200001 8.000000 2.850000
v 21.200001 8.210476 2.891866
v 21.200001 8.388908 3.011091
v 21.200001 8.508134 3.189524
v 21.200001 8.550000 3.400000
v 21.200001 8.508134 3.610476
v 21.200001 8.388908 3.788909
v 21.200001 8.210476 3.908134
v 21.200001 8.000000 3.950000
v 21.200001 7.789524 3.908134
v 21.200001 7.611091 3.788909
v 21.200001 7.491866 3.610476
v 21.200001 7.450000 3.400000
v 21.200001 7.491866 3.189524
v 21.200001 7.611091 3.011091
v 21.200001 7.789524 2.891866
v 24.600002 8.000000 2.850000
v 24.600002 8.210476 2.891866
v 24.600002 8.388908 3.011091
v 24.600002 8.508134 3.189524
v 24.600002 8.550000 3.400000
v 24.600002 8.508134 3.610476
v 24.600002 8.388908 3.788909
v 24.600002 8.210476 3.908134
v 24.600002 8.000000 3.950000
v 24.600002 7.789524 3.908134
v 24.600002 7.611091 3.788909
v 24.600002 7.491866 3.610476
v 24.600002 7.450000 3.400000
v 24.600002 7.491866 3.189524
v 24.600002 7.611091 3.011091
v 24.600002 7.789524 2.891866
vn -0.0000 0.1951 -0.9808
vn -0.0000 0.5556 -0.8315
vn -0.0000 0.8315 -0.5556
vn -0.0000 0.9808 -0.1951
vn -0.0000 0.9808 0.1951
vn -0.0000 0.8315 0.5556
vn -0.0000 0.5556 0.8315
vn -0.0000 0.1951 0.9808
vn -0.0000 -0.1951 0.9808
vn -0.0000 -0.5556 0.8315
vn -0.0000 -0.8315 0.5556
vn -0.0000 -0.9808 0.1951
vn -0.0000 -0.9808 -0.1951
vn -0.0000 -0.8315 -0.5556
vn -0.0000 -0.5556 -0.8315
vn -0.0000 -0.1951 -0.9808
vn -1.0000 -0.0000 -0.0000
vn 1.0000 -0.0000 -0.0000
s 0
usemtl mat_dark_metal
f 122//91 137//91 121//91
f 123//92 138//92 122//92
f 124//93 139//93 123//93
f 125//94 140//94 124//94
f 126//95 141//95 125//95
f 127//96 142//96 126//96
f 128//97 143//97 127//97
f 129//98 144//98 128//98
f 130//99 145//99 129//99
f 131//100 146//100 130//100
f 132//101 147//101 131//101
f 133//102 148//102 132//102
f 134//103 149//103 133//103
f 135//104 150//104 134//104
f 136//105 151//105 135//105
f 121//106 152//106 136//106
f 129//107 125//107 121//107
f 144//108 148//108 152//108
f 122//91 138//91 137//91
f 123//92 139//92 138//92
f 124//93 140//93 139//93
f 125//94 141//94 140//94
f 126//95 142//95 141//95
f 127//96 143//96 142//96
f 128//97 144//97 143//97
f 129//98 145//98 144//98
f 130//99 146//99 145//99
f 131//100 147//100 146//100
f 132//101 148//101 147//101
f 133//102 149//102 148//102
f 134//103 150//103 149//103
f 135//104 151//104 150//104
f 136//105 152//105 151//105
f 121//106 137//106 152//106
f 121//107 136//107 135//107
f 135//107 134//107 133//107
f 133//107 132//107 131//107
f 131//107 130//107 129//107
f 129//107 128//107 127//107
f 127//107 126//107 125//107
f 125//107 124//107 123//107
f 123//107 122//107 121//107
f 121//107 135//107 133//107
f 133//107 131//107 129//107
f 129//107 127//107 125//107
f 125//107 123//107 121//107
f 121//107 133//107 129//107
f 152//108 137//108 138//108
f 138//108 139//108 140//108
f 140//108 141//108 142//108
f 142//108 143//108 144//108
f 144//108 145//108 146//108
f 146//108 147//108 148//108
f 148//108 149//108 150//108
f 150//108 151//108 152//108
f 152//108 138//108 140//108
f 140//108 142//108 144//108
f 144//108 146//108 148//108
f 148//108 150//108 152//108
f 152//108 140//108 144//108
o baler_chute.006
v 18.799999 9.700001 3.300000
v 22.200001 9.700001 3.300000
v 22.200001 11.500000 3.300000
v 18.799999 11.500000 3.300000
v 18.799999 9.700001 4.500000
v 22.200001 9.700001 4.500000
v 22.200001 11.500000 4.500000
v 18.799999 11.500000 4.500000
vn -0.0000 -0.0000 1.0000
vn -0.0000 -0.0000 -1.0000
vn -0.0000 1.0000 -0.0000
vn -1.0000 -0.0000 -0.0000
vn -0.0000 -1.0000 -0.0000
vn 1.0000 -0.0000 -0.0000
s 0
usemtl mat_steel_lt
f 154//109 156//109 153//109
f 160//110 158//110 157//110
f 157//111 154//111 153//111
f 158//112 155//112 154//112
f 159//113 156//113 155//113
f 160//114 153//114 156//114
f 154//109 155//109 156//109
f 160//110 159//110 158//110
f 157//111 158//111 154//111
f 158//112 159//112 155//112
f 159//113 160//113 156//113
f 160//114 157//114 153//114
o baler_cabinet.006
v 16.599998 4.700000 0.000000
v 17.599998 4.700000 0.000000
v 17.599998 6.100000 0.000000
v 16.599998 6.100000 0.000000
v 16.599998 4.700000 2.000000
v 17.599998 4.700000 2.000000
v 17.599998 6.100000 2.000000
v 16.599998 6.100000 2.000000
vn -0.0000 -0.0000 1.0000
vn -0.0000 -0.0000 -1.0000
vn -0.0000 1.0000 -0.0000
vn -1.0000 -0.0000 -0.0000
vn -0.0000 -1.0000 -0.0000
vn 1.0000 -0.0000 -0.0000
s 0
usemtl mat_steel_lt
f 162//115 164//115 161//115
f 168//116 166//116 165//116
f 165//117 162//117 161//117
f 166//118 163//118 162//118
f 167//119 164//119 163//119
f 168//120 161//120 164//120
f 162//115 163//115 164//115
f 168//116 167//116 166//116
f 165//117 166//117 162//117
f 166//118 167//118 163//118
f 167//119 168//119 164//119
f 168//120 165//120 161//120
o baler_outfeed_table.006
v 18.900000 3.300000 0.375000
v 22.100000 3.300000 0.375000
v 22.100000 5.900000 0.375000
v 18.900000 5.900000 0.375000
v 18.900000 3.300000 0.725000
v 22.100000 3.300000 0.725000
v 22.100000 5.900000 0.725000
v 18.900000 5.900000 0.725000
vn -0.0000 -0.0000 1.0000
vn -0.0000 -0.0000 -1.0000
vn -0.0000 1.0000 -0.0000
vn -1.0000 -0.0000 -0.0000
vn -0.0000 -1.0000 -0.0000
vn 1.0000 -0.0000 -0.0000
s 0
usemtl mat_structure
f 170//121 172//121 169//121
f 176//122 174//122 173//122
f 173//123 170//123 169//123
f 174//124 171//124 170//124
f 175//125 172//125 171//125
f 176//126 169//126 172//126
f 170//121 171//121 172//121
f 176//122 175//122 174//122
f 173//123 174//123 170//123
f 174//124 175//124 171//124
f 175//125 176//125 172//125
f 176//126 173//126 169//126
o baler_platform_deck.006
v 18.000000 10.700001 3.110000
v 24.000000 10.700001 3.110000
v 24.000000 12.500000 3.110000
v 18.000000 12.500000 3.110000
v 18.000000 10.700001 3.290000
v 24.000000 10.700001 3.290000
v 24.000000 12.500000 3.290000
v 18.000000 12.500000 3.290000
vn -0.0000 -0.0000 1.0000
vn -0.0000 -0.0000 -1.0000
vn -0.0000 1.0000 -0.0000
vn -1.0000 -0.0000 -0.0000
vn -0.0000 -1.0000 -0.0000
vn 1.0000 -0.0000 -0.0000
s 0
usemtl mat_structure
f 178//127 180//127 177//127
f 184//128 182//128 181//128
f 181//129 178//129 177//129
f 182//130 179//130 178//130
f 183//131 180//131 179//131
f 184//132 177//132 180//132
f 178//127 179//127 180//127
f 184//128 183//128 182//128
f 181//129 182//129 178//129
f 182//130 183//130 179//130
f 183//131 184//131 180//131
f 184//132 181//132 177//132
o baler_platform_leg.024
v 18.310001 10.910000 0.000000
v 18.490002 10.910000 0.000000
v 18.490002 11.090000 0.000000
v 18.310001 11.090000 0.000000
v 18.310001 10.910000 3.200000
v 18.490002 10.910000 3.200000
v 18.490002 11.090000 3.200000
v 18.310001 11.090000 3.200000
vn -0.0000 -0.0000 1.0000
vn -0.0000 -0.0000 -1.0000
vn -0.0000 1.0000 -0.0000
vn -1.0000 -0.0000 -0.0000
vn -0.0000 -1.0000 -0.0000
vn 1.0000 -0.0000 -0.0000
s 0
usemtl mat_structure
f 186//133 188//133 185//133
f 192//134 190//134 189//134
f 189//135 186//135 185//135
f 190//136 187//136 186//136
f 191//137 188//137 187//137
f 192//138 185//138 188//138
f 186//133 187//133 188//133
f 192//134 191//134 190//134
f 189//135 190//135 186//135
f 190//136 191//136 187//136
f 191//137 192//137 188//137
f 192//138 189//138 185//138
o baler_platform_leg.025
v 18.310001 12.110000 0.000000
v 18.490002 12.110000 0.000000
v 18.490002 12.290000 0.000000
v 18.310001 12.290000 0.000000
v 18.310001 12.110000 3.200000
v 18.490002 12.110000 3.200000
v 18.490002 12.290000 3.200000
v 18.310001 12.290000 3.200000
vn -0.0000 -0.0000 1.0000
vn -0.0000 -0.0000 -1.0000
vn -0.0000 1.0000 -0.0000
vn -1.0000 -0.0000 -0.0000
vn -0.0000 -1.0000 -0.0000
vn 1.0000 -0.0000 -0.0000
s 0
usemtl mat_structure
f 194//139 196//139 193//139
f 200//140 198//140 197//140
f 197//141 194//141 193//141
f 198//142 195//142 194//142
f 199//143 196//143 195//143
f 200//144 193//144 196//144
f 194//139 195//139 196//139
f 200//140 199//140 198//140
f 197//141 198//141 194//141
f 198//142 199//142 195//142
f 199//143 200//143 196//143
f 200//144 197//144 193//144
o baler_platform_leg.026
v 23.509998 10.910000 0.000000
v 23.689999 10.910000 0.000000
v 23.689999 11.090000 0.000000
v 23.509998 11.090000 0.000000
v 23.509998 10.910000 3.200000
v 23.689999 10.910000 3.200000
v 23.689999 11.090000 3.200000
v 23.509998 11.090000 3.200000
vn -0.0000 -0.0000 1.0000
vn -0.0000 -0.0000 -1.0000
vn -0.0000 1.0000 -0.0000
vn -1.0000 -0.0000 -0.0000
vn -0.0000 -1.0000 -0.0000
vn 1.0000 -0.0000 -0.0000
s 0
usemtl mat_structure
f 202//145 204//145 201//145
f 208//146 206//146 205//146
f 205//147 202//147 201//147
f 206//148 203//148 202//148
f 207//149 204//149 203//149
f 208//150 201//150 204//150
f 202//145 203//145 204//145
f 208//146 207//146 206//146
f 205//147 206//147 202//147
f 206//148 207//148 203//148
f 207//149 208//149 204//149
f 208//150 205//150 201//150
o baler_platform_leg.027
v 23.509998 12.110000 0.000000
v 23.689999 12.110000 0.000000
v 23.689999 12.290000 0.000000
v 23.509998 12.290000 0.000000
v 23.509998 12.110000 3.200000
v 23.689999 12.110000 3.200000
v 23.689999 12.290000 3.200000
v 23.509998 12.290000 3.200000
vn -0.0000 -0.0000 1.0000
vn -0.0000 -0.0000 -1.0000
vn -0.0000 1.0000 -0.0000
vn -1.0000 -0.0000 -0.0000
vn -0.0000 -1.0000 -0.0000
vn 1.0000 -0.0000 -0.0000
s 0
usemtl mat_structure
f 210//151 212//151 209//151
f 216//152 214//152 213//152
f 213//153 210//153 209//153
f 214//154 211//154 210//154
f 215//155 212//155 211//155
f 216//156 209//156 212//156
f 210//151 211//151 212//151
f 216//152 215//152 214//152
f 213//153 214//153 210//153
f 214//154 215//154 211//154
f 215//155 216//155 212//155
f 216//156 213//156 209//156
o baler_platform_rl_post.018
v 17.959999 12.460000 3.290000
v 18.040001 12.460000 3.290000
v 18.040001 12.540000 3.290000
v 17.959999 12.540000 3.290000
v 17.959999 12.460000 4.390000
v 18.040001 12.460000 4.390000
v 18.040001 12.540000 4.390000
v 17.959999 12.540000 4.390000
vn -0.0000 -0.0000 1.0000
vn -0.0000 -0.0000 -1.0000
vn -0.0000 1.0000 -0.0000
vn -1.0000 -0.0000 -0.0000
vn -0.0000 -1.0000 -0.0000
vn 1.0000 -0.0000 -0.0000
s 0
usemtl mat_yellow
f 218//157 220//157 217//157
f 224//158 222//158 221//158
f 221//159 218//159 217//159
f 222//160 219//160 218//160
f 223//161 220//161 219//161
f 224//162 217//162 220//162
f 218//157 219//157 220//157
f 224//158 223//158 222//158
f 221//159 222//159 218//159
f 222//160 223//160 219//160
f 223//161 224//161 220//161
f 224//162 221//162 217//162
o baler_platform_rl_post.019
v 20.959999 12.460000 3.290000
v 21.040001 12.460000 3.290000
v 21.040001 12.540000 3.290000
v 20.959999 12.540000 3.290000
v 20.959999 12.460000 4.390000
v 21.040001 12.460000 4.390000
v 21.040001 12.540000 4.390000
v 20.959999 12.540000 4.390000
vn -0.0000 -0.0000 1.0000
vn -0.0000 -0.0000 -1.0000
vn -0.0000 1.0000 -0.0000
vn -1.0000 -0.0000 -0.0000
vn -0.0000 -1.0000 -0.0000
vn 1.0000 -0.0000 -0.0000
s 0
usemtl mat_yellow
f 226//163 228//163 225//163
f 232//164 230//164 229//164
f 229//165 226//165 225//165
f 230//166 227//166 226//166
f 231//167 228//167 227//167
f 232//168 225//168 228//168
f 226//163 227//163 228//163
f 232//164 231//164 230//164
f 229//165 230//165 226//165
f 230//166 231//166 227//166
f 231//167 232//167 228//167
f 232//168 229//168 225//168
o baler_platform_rl_post.020
v 23.959999 12.460000 3.290000
v 24.040001 12.460000 3.290000
v 24.040001 12.540000 3.290000
v 23.959999 12.540000 3.290000
v 23.959999 12.460000 4.390000
v 24.040001 12.460000 4.390000
v 24.040001 12.540000 4.390000
v 23.959999 12.540000 4.390000
vn -0.0000 -0.0000 1.0000
vn -0.0000 -0.0000 -1.0000
vn -0.0000 1.0000 -0.0000
vn -1.0000 -0.0000 -0.0000
vn -0.0000 -1.0000 -0.0000
vn 1.0000 -0.0000 -0.0000
s 0
usemtl mat_yellow
f 234//169 236//169 233//169
f 240//170 238//170 237//170
f 237//171 234//171 233//171
f 238//172 235//172 234//172
f 239//173 236//173 235//173
f 240//174 233//174 236//174
f 234//169 235//169 236//169
f 240//170 239//170 238//170
f 237//171 238//171 234//171
f 238//172 239//172 235//172
f 239//173 240//173 236//173
f 240//174 237//174 233//174
o baler_platform_rl_rail.012
v 18.000000 12.470000 4.355000
v 24.000000 12.470000 4.355000
v 24.000000 12.530000 4.355000
v 18.000000 12.530000 4.355000
v 18.000000 12.470000 4.425000
v 24.000000 12.470000 4.425000
v 24.000000 12.530000 4.425000
v 18.000000 12.530000 4.425000
vn -0.0000 -0.0000 1.0000
vn -0.0000 -0.0000 -1.0000
vn -0.0000 1.0000 -0.0000
vn -1.0000 -0.0000 -0.0000
vn -0.0000 -1.0000 -0.0000
vn 1.0000 -0.0000 -0.0000
s 0
usemtl mat_yellow
f 242//175 244//175 241//175
f 248//176 246//176 245//176
f 245//177 242//177 241//177
f 246//178 243//178 242//178
f 247//179 244//179 243//179
f 248//180 241//180 244//180
f 242//175 243//175 244//175
f 248//176 247//176 246//176
f 245//177 246//177 242//177
f 246//178 247//178 243//178
f 247//179 248//179 244//179
f 248//180 245//180 241//180
o baler_platform_rl_rail.013
v 18.000000 12.470000 3.860000
v 24.000000 12.470000 3.860000
v 24.000000 12.530000 3.860000
v 18.000000 12.530000 3.860000
v 18.000000 12.470000 3.930000
v 24.000000 12.470000 3.930000
v 24.000000 12.530000 3.930000
v 18.000000 12.530000 3.930000
vn -0.0000 -0.0000 1.0000
vn -0.0000 -0.0000 -1.0000
vn -0.0000 1.0000 -0.0000
vn -1.0000 -0.0000 -0.0000
vn -0.0000 -1.0000 -0.0000
vn 1.0000 -0.0000 -0.0000
s 0
usemtl mat_yellow
f 250//181 252//181 249//181
f 256//182 254//182 253//182
f 253//183 250//183 249//183
f 254//184 251//184 250//184
f 255//185 252//185 251//185
f 256//186 249//186 252//186
f 250//181 251//181 252//181
f 256//182 255//182 254//182
f 253//183 254//183 250//183
f 254//184 255//184 251//184
f 255//185 256//185 252//185
f 256//186 253//186 249//186
o baler_stairs_step.084
v 22.900000 15.039286 0.084286
v 22.900000 14.739286 0.084286
v 24.100000 14.739286 0.084286
v 24.100000 15.039286 0.084286
v 22.900000 15.039286 0.144286
v 22.900000 14.739286 0.144286
v 24.100000 14.739286 0.144286
v 24.100000 15.039286 0.144286
vn -0.0000 -0.0000 1.0000
vn -0.0000 -0.0000 -1.0000
vn 1.0000 -0.0000 -0.0000
vn -0.0000 1.0000 -0.0000
vn -1.0000 -0.0000 -0.0000
vn -0.0000 -1.0000 -0.0000
s 0
usemtl mat_structure
f 258//187 260//187 257//187
f 264//188 262//188 261//188
f 261//189 258//189 257//189
f 262//190 259//190 258//190
f 263//191 260//191 259//191
f 264//192 257//192 260//192
f 258//187 259//187 260//187
f 264//188 263//188 262//188
f 261//189 262//189 258//189
f 262//190 263//190 259//190
f 263//191 264//191 260//191
f 264//192 261//192 257//192
o baler_stairs_step.085
v 22.900000 14.817857 0.312857
v 22.900000 14.517858 0.312857
v 24.100000 14.517858 0.312857
v 24.100000 14.817857 0.312857
v 22.900000 14.817857 0.372857
v 22.900000 14.517858 0.372857
v 24.100000 14.517858 0.372857
v 24.100000 14.817857 0.372857
vn -0.0000 -0.0000 1.0000
vn -0.0000 -0.0000 -1.0000
vn 1.0000 -0.0000 -0.0000
vn -0.0000 1.0000 -0.0000
vn -1.0000 -0.0000 -0.0000
vn -0.0000 -1.0000 -0.0000
s 0
usemtl mat_structure
f 266//193 268//193 265//193
f 272//194 270//194 269//194
f 269//195 266//195 265//195
f 270//196 267//196 266//196
f 271//197 268//197 267//197
f 272//198 265//198 268//198
f 266//193 267//193 268//193
f 272//194 271//194 270//194
f 269//195 270//195 266//195
f 270//196 271//196 267//196
f 271//197 272//197 268//197
f 272//198 269//198 265//198
o baler_stairs_step.086
v 22.900000 14.596428 0.541429
v 22.900000 14.296429 0.541429
v 24.100000 14.296429 0.541429
v 24.100000 14.596428 0.541429
v 22.900000 14.596428 0.601429
v 22.900000 14.296429 0.601429
v 24.100000 14.296429 0.601429
v 24.100000 14.596428 0.601429
vn -0.0000 -0.0000 1.0000
vn -0.0000 -0.0000 -1.0000
vn 1.0000 -0.0000 -0.0000
vn -0.0000 1.0000 -0.0000
vn -1.0000 -0.0000 -0.0000
vn -0.0000 -1.0000 -0.0000
s 0
usemtl mat_structure
f 274//199 276//199 273//199
f 280//200 278//200 277//200
f 277//201 274//201 273//201
f 278//202 275//202 274//202
f 279//203 276//203 275//203
f 280//204 273//204 276//204
f 274//199 275//199 276//199
f 280//200 279//200 278//200
f 277//201 278//201 274//201
f 278//202 279//202 275//202
f 279//203 280//203 276//203
f 280//204 277//204 273//204
o baler_stairs_step.087
v 22.900000 14.375000 0.770000
v 22.900000 14.075001 0.770000
v 24.100000 14.075001 0.770000
v 24.100000 14.375000 0.770000
v 22.900000 14.375000 0.830000
v 22.900000 14.075001 0.830000
v 24.100000 14.075001 0.830000
v 24.100000 14.375000 0.830000
vn -0.0000 -0.0000 1.0000
vn -0.0000 -0.0000 -1.0000
vn 1.0000 -0.0000 -0.0000
vn -0.0000 1.0000 -0.0000
vn -1.0000 -0.0000 -0.0000
vn -0.0000 -1.0000 -0.0000
s 0
usemtl mat_structure
f 282//205 284//205 281//205
f 288//206 286//206 285//206
f 285//207 282//207 281//207
f 286//208 283//208 282//208
f 287//209 284//209 283//209
f 288//210 281//210 284//210
f 282//205 283//205 284//205
f 288//206 287//206 286//206
f 285//207 286//207 282//207
f 286//208 287//208 283//208
f 287//209 288//209 284//209
f 288//210 285//210 281//210
o baler_stairs_step.088
v 22.900000 14.153571 0.998572
v 22.900000 13.853572 0.998572
v 24.100000 13.853572 0.998572
v 24.100000 14.153571 0.998572
v 22.900000 14.153571 1.058571
v 22.900000 13.853572 1.058571
v 24.100000 13.853572 1.058571
v 24.100000 14.153571 1.058571
vn -0.0000 -0.0000 1.0000
vn -0.0000 -0.0000 -1.0000
vn 1.0000 -0.0000 -0.0000
vn -0.0000 1.0000 -0.0000
vn -1.0000 -0.0000 -0.0000
vn -0.0000 -1.0000 -0.0000
s 0
usemtl mat_structure
f 290//211 292//211 289//211
f 296//212 294//212 293//212
f 293//213 290//213 289//213
f 294//214 291//214 290//214
f 295//215 292//215 291//215
f 296//216 289//216 292//216
f 290//211 291//211 292//211
f 296//212 295//212 294//212
f 293//213 294//213 290//213
f 294//214 295//214 291//214
f 295//215 296//215 292//215
f 296//216 293//216 289//216
o baler_stairs_step.089
v 22.900000 13.932142 1.227143
v 22.900000 13.632143 1.227143
v 24.100000 13.632143 1.227143
v 24.100000 13.932142 1.227143
v 22.900000 13.932142 1.287143
v 22.900000 13.632143 1.287143
v 24.100000 13.632143 1.287143
v 24.100000 13.932142 1.287143
vn -0.0000 -0.0000 1.0000
vn -0.0000 -0.0000 -1.0000
vn 1.0000 -0.0000 -0.0000
vn -0.0000 1.0000 -0.0000
vn -1.0000 -0.0000 -0.0000
vn -0.0000 -1.0000 -0.0000
s 0
usemtl mat_structure
f 298//217 300//217 297//217
f 304//218 302//218 301//218
f 301//219 298//219 297//219
f 302//220 299//220 298//220
f 303//221 300//221 299//221
f 304//222 297//222 300//222
f 298//217 299//217 300//217
f 304//218 303//218 302//218
f 301//219 302//219 298//219
f 302//220 303//220 299//220
f 303//221 304//221 300//221
f 304//222 301//222 297//222
o baler_stairs_step.090
v 22.900000 13.710713 1.455714
v 22.900000 13.410714 1.455714
v 24.100000 13.410714 1.455714
v 24.100000 13.710713 1.455714
v 22.900000 13.710713 1.515714
v 22.900000 13.410714 1.515714
v 24.100000 13.410714 1.515714
v 24.100000 13.710713 1.515714
vn -0.0000 -0.0000 1.0000
vn -0.0000 -0.0000 -1.0000
vn 1.0000 -0.0000 -0.0000
vn -0.0000 1.0000 -0.0000
vn -1.0000 -0.0000 -0.0000
vn -0.0000 -1.0000 -0.0000
s 0
usemtl mat_structure
f 306//223 308//223 305//223
f 312//224 310//224 309//224
f 309//225 306//225 305//225
f 310//226 307//226 306//226
f 311//227 308//227 307//227
f 312//228 305//228 308//228
f 306//223 307//223 308//223
f 312//224 311//224 310//224
f 309//225 310//225 306//225
f 310//226 311//226 307//226
f 311//227 312//227 308//227
f 312//228 309//228 305//228
o baler_stairs_step.091
v 22.900000 13.489285 1.684286
v 22.900000 13.189286 1.684286
v 24.100000 13.189286 1.684286
v 24.100000 13.489285 1.684286
v 22.900000 13.489285 1.744286
v 22.900000 13.189286 1.744286
v 24.100000 13.189286 1.744286
v 24.100000 13.489285 1.744286
vn -0.0000 -0.0000 1.0000
vn -0.0000 -0.0000 -1.0000
vn 1.0000 -0.0000 -0.0000
vn -0.0000 1.0000 -0.0000
vn -1.0000 -0.0000 -0.0000
vn -0.0000 -1.0000 -0.0000
s 0
usemtl mat_structure
f 314//229 316//229 313//229
f 320//230 318//230 317//230
f 317//231 314//231 313//231
f 318//232 315//232 314//232
f 319//233 316//233 315//233
f 320//234 313//234 316//234
f 314//229 315//229 316//229
f 320//230 319//230 318//230
f 317//231 318//231 314//231
f 318//232 319//232 315//232
f 319//233 320//233 316//233
f 320//234 317//234 313//234
o baler_stairs_step.092
v 22.900000 13.267857 1.912857
v 22.900000 12.967857 1.912857
v 24.100000 12.967857 1.912857
v 24.100000 13.267857 1.912857
v 22.900000 13.267857 1.972857
v 22.900000 12.967857 1.972857
v 24.100000 12.967857 1.972857
v 24.100000 13.267857 1.972857
vn -0.0000 -0.0000 1.0000
vn -0.0000 -0.0000 -1.0000
vn 1.0000 -0.0000 -0.0000
vn -0.0000 1.0000 -0.0000
vn -1.0000 -0.0000 -0.0000
vn -0.0000 -1.0000 -0.0000
s 0
usemtl mat_structure
f 322//235 324//235 321//235
f 328//236 326//236 325//236
f 325//237 322//237 321//237
f 326//238 323//238 322//238
f 327//239 324//239 323//239
f 328//240 321//240 324//240
f 322//235 323//235 324//235
f 328//236 327//236 326//236
f 325//237 326//237 322//237
f 326//238 327//238 323//238
f 327//239 328//239 324//239
f 328//240 325//240 321//240
o baler_stairs_step.093
v 22.900000 13.046428 2.141428
v 22.900000 12.746428 2.141428
v 24.100000 12.746428 2.141428
v 24.100000 13.046428 2.141428
v 22.900000 13.046428 2.201428
v 22.900000 12.746428 2.201428
v 24.100000 12.746428 2.201428
v 24.100000 13.046428 2.201428
vn -0.0000 -0.0000 1.0000
vn -0.0000 -0.0000 -1.0000
vn 1.0000 -0.0000 -0.0000
vn -0.0000 1.0000 -0.0000
vn -1.0000 -0.0000 -0.0000
vn -0.0000 -1.0000 -0.0000
s 0
usemtl mat_structure
f 330//241 332//241 329//241
f 336//242 334//242 333//242
f 333//243 330//243 329//243
f 334//244 331//244 330//244
f 335//245 332//245 331//245
f 336//246 329//246 332//246
f 330//241 331//241 332//241
f 336//242 335//242 334//242
f 333//243 334//243 330//243
f 334//244 335//244 331//244
f 335//245 336//245 332//245
f 336//246 333//246 329//246
o baler_stairs_step.094
v 22.900000 12.824999 2.370000
v 22.900000 12.525000 2.370000
v 24.100000 12.525000 2.370000
v 24.100000 12.824999 2.370000
v 22.900000 12.824999 2.430000
v 22.900000 12.525000 2.430000
v 24.100000 12.525000 2.430000
v 24.100000 12.824999 2.430000
vn -0.0000 -0.0000 1.0000
vn -0.0000 -0.0000 -1.0000
vn 1.0000 -0.0000 -0.0000
vn -0.0000 1.0000 -0.0000
vn -1.0000 -0.0000 -0.0000
vn -0.0000 -1.0000 -0.0000
s 0
usemtl mat_structure
f 338//247 340//247 337//247
f 344//248 342//248 341//248
f 341//249 338//249 337//249
f 342//250 339//250 338//250
f 343//251 340//251 339//251
f 344//252 337//252 340//252
f 338//247 339//247 340//247
f 344//248 343//248 342//248
f 341//249 342//249 338//249
f 342//250 343//250 339//250
f 343//251 344//251 340//251
f 344//252 341//252 337//252
o baler_stairs_step.095
v 22.900000 12.603571 2.598572
v 22.900000 12.303572 2.598572
v 24.100000 12.303572 2.598572
v 24.100000 12.603571 2.598572
v 22.900000 12.603571 2.658571
v 22.900000 12.303572 2.658571
v 24.100000 12.303572 2.658571
v 24.100000 12.603571 2.658571
vn -0.0000 -0.0000 1.0000
vn -0.0000 -0.0000 -1.0000
vn 1.0000 -0.0000 -0.0000
vn -0.0000 1.0000 -0.0000
vn -1.0000 -0.0000 -0.0000
vn -0.0000 -1.0000 -0.0000
s 0
usemtl mat_structure
f 346//253 348//253 345//253
f 352//254 350//254 349//254
f 349//255 346//255 345//255
f 350//256 347//256 346//256
f 351//257 348//257 347//257
f 352//258 345//258 348//258
f 346//253 347//253 348//253
f 352//254 351//254 350//254
f 349//255 350//255 346//255
f 350//256 351//256 347//256
f 351//257 352//257 348//257
f 352//258 349//258 345//258
o baler_stairs_step.096
v 22.900000 12.382142 2.827143
v 22.900000 12.082143 2.827143
v 24.100000 12.082143 2.827143
v 24.100000 12.382142 2.827143
v 22.900000 12.382142 2.887143
v 22.900000 12.082143 2.887143
v 24.100000 12.082143 2.887143
v 24.100000 12.382142 2.887143
vn -0.0000 -0.0000 1.0000
vn -0.0000 -0.0000 -1.0000
vn 1.0000 -0.0000 -0.0000
vn -0.0000 1.0000 -0.0000
vn -1.0000 -0.0000 -0.0000
vn -0.0000 -1.0000 -0.0000
s 0
usemtl mat_structure
f 354//259 356//259 353//259
f 360//260 358//260 357//260
f 357//261 354//261 353//261
f 358//262 355//262 354//262
f 359//263 356//263 355//263
f 360//264 353//264 356//264
f 354//259 355//259 356//259
f 360//260 359//260 358//260
f 357//261 358//261 354//261
f 358//262 359//262 355//262
f 359//263 360//263 356//263
f 360//264 357//264 353//264
o baler_stairs_step.097
v 22.900000 12.160713 3.055714
v 22.900000 11.860714 3.055714
v 24.100000 11.860714 3.055714
v 24.100000 12.160713 3.055714
v 22.900000 12.160713 3.115714
v 22.900000 11.860714 3.115714
v 24.100000 11.860714 3.115714
v 24.100000 12.160713 3.115714
vn -0.0000 -0.0000 1.0000
vn -0.0000 -0.0000 -1.0000
vn 1.0000 -0.0000 -0.0000
vn -0.0000 1.0000 -0.0000
vn -1.0000 -0.0000 -0.0000
vn -0.0000 -1.0000 -0.0000
s 0
usemtl mat_structure
f 362//265 364//265 361//265
f 368//266 366//266 365//266
f 365//267 362//267 361//267
f 366//268 363//268 362//268
f 367//269 364//269 363//269
f 368//270 361//270 364//270
f 362//265 363//265 364//265
f 368//266 367//266 366//266
f 365//267 366//267 362//267
f 366//268 367//268 363//268
f 367//269 368//269 364//269
f 368//270 365//270 361//270
o baler_stairs_stringer.012
v 24.069998 14.892264 -0.254369
v 24.069998 11.792263 2.945631
v 24.129999 11.792263 2.945631
v 24.129999 14.892264 -0.254369
v 24.069998 15.107737 -0.045631
v 24.069998 12.007735 3.154369
v 24.129999 12.007735 3.154369
v 24.129999 15.107737 -0.045631
vn -0.0000 0.7182 0.6958
vn -0.0000 -0.7182 -0.6958
vn 1.0000 -0.0000 -0.0000
vn -0.0000 0.6958 -0.7182
vn -1.0000 -0.0000 -0.0000
vn -0.0000 -0.6958 0.7182
s 0
usemtl mat_structure
f 370//271 372//271 369//271
f 376//272 374//272 373//272
f 373//273 370//273 369//273
f 374//274 371//274 370//274
f 375//275 372//275 371//275
f 376//276 369//276 372//276
f 370//271 371//271 372//271
f 376//272 375//272 374//272
f 373//273 374//273 370//273
f 374//274 375//274 371//274
f 375//275 376//275 372//275
f 376//276 373//276 369//276
o baler_stairs_handrail.012
v 24.074999 14.978453 0.929126
v 24.074999 11.878452 4.129126
v 24.124998 11.878452 4.129126
v 24.124998 14.978453 0.929126
v 24.074999 15.021547 0.970874
v 24.074999 11.921547 4.170874
v 24.124998 11.921547 4.170874
v 24.124998 15.021547 0.970874
vn -0.0000 0.7182 0.6958
vn -0.0000 -0.7182 -0.6958
vn 1.0000 -0.0000 -0.0000
vn -0.0000 0.6958 -0.7182
vn -1.0000 -0.0000 -0.0000
vn -0.0000 -0.6958 0.7182
s 0
usemtl mat_yellow
f 378//277 380//277 377//277
f 384//278 382//278 381//278
f 381//279 378//279 377//279
f 382//280 379//280 378//280
f 383//281 380//281 379//281
f 384//282 377//282 380//282
f 378//277 379//277 380//277
f 384//278 383//278 382//278
f 381//279 382//279 378//279
f 382//280 383//280 379//280
f 383//281 384//281 380//281
f 384//282 381//282 377//282
o baler_stairs_stringer.013
v 22.870001 14.892264 -0.254369
v 22.870001 11.792263 2.945631
v 22.930002 11.792263 2.945631
v 22.930002 14.892264 -0.254369
v 22.870001 15.107737 -0.045631
v 22.870001 12.007735 3.154369
v 22.930002 12.007735 3.154369
v 22.930002 15.107737 -0.045631
vn -0.0000 0.7182 0.6958
vn -0.0000 -0.7182 -0.6958
vn 1.0000 -0.0000 -0.0000
vn -0.0000 0.6958 -0.7182
vn -1.0000 -0.0000 -0.0000
vn -0.0000 -0.6958 0.7182
s 0
usemtl mat_structure
f 386//283 388//283 385//283
f 392//284 390//284 389//284
f 389//285 386//285 385//285
f 390//286 387//286 386//286
f 391//287 388//287 387//287
f 392//288 385//288 388//288
f 386//283 387//283 388//283
f 392//284 391//284 390//284
f 389//285 390//285 386//285
f 390//286 391//286 387//286
f 391//287 392//287 388//287
f 392//288 389//288 385//288
o baler_stairs_handrail.013
v 22.875002 14.978453 0.929126
v 22.875002 11.878452 4.129126
v 22.925001 11.878452 4.129126
v 22.925001 14.978453 0.929126
v 22.875002 15.021547 0.970874
v 22.875002 11.921547 4.170874
v 22.925001 11.921547 4.170874
v 22.925001 15.021547 0.970874
vn -0.0000 0.7182 0.6958
vn -0.0000 -0.7182 -0.6958
vn 1.0000 -0.0000 -0.0000
vn -0.0000 0.6958 -0.7182
vn -1.0000 -0.0000 -0.0000
vn -0.0000 -0.6958 0.7182
s 0
usemtl mat_yellow
f 394//289 396//289 393//289
f 400//290 398//290 397//290
f 397//291 394//291 393//291
f 398//292 395//292 394//292
f 399//293 396//293 395//293
f 400//294 393//294 396//294
f 394//289 395//289 396//289
f 400//290 399//290 398//290
f 397//291 398//291 394//291
f 398//292 399//292 395//292
f 399//293 400//293 396//293
f 400//294 397//294 393//294
